<?xml version="1.0" encoding="utf-8"?>
<!-- Generator: Adobe Illustrator 27.9.0, SVG Export Plug-In . SVG Version: 6.00 Build 0)  -->
<svg version="1.1" id="Layer_1" xmlns="http://www.w3.org/2000/svg" xmlns:xlink="http://www.w3.org/1999/xlink" x="0px" y="0px"
	 viewBox="0 0 45.6 48.6" style="enable-background:new 0 0 45.6 48.6;" xml:space="preserve">
<style type="text/css">
	.st0{fill:#EFEFEF;}
</style>
<g id="Layer_2_00000139258806015094581390000010351727627113825169_">
	<g id="Layer_1-2">
		<path class="st0" d="M43.8,6.3c-0.2-0.2-0.5-0.4-0.8-0.6s-0.5-0.4-0.8-0.6l-0.5-0.4c-5.3-3.8-11.9-5.4-18.4-4.6
			C19.2,0.5,15.2,2,11.7,4.3c-9.1,5.6-14,18-10.9,29c0.8,2.9,2,5.6,3.6,8.1l0,0c0.2,0.3,0.5,0.7,0.7,1c1,1.3,2.1,2.4,3.3,3.5l0,0
			c0.3,0.3,0.6,0.5,0.9,0.7l1.2,1c0.5,0.4,1,0.7,1.5,1l2.8-3.6l27.9-33.7L45.4,8C45,7.5,44.4,6.9,43.8,6.3z M11.4,42.5
			c-2.4-2.2-4.3-4.9-5.5-8c-0.3-0.8-0.6-1.6-0.8-2.4C2.5,23,6.5,12.5,14.2,7.9c7.6-5,17.5-4.9,25,0.3l0.3,0.2L11.4,42.5z"/>
	</g>
</g>
</svg>
