<?xml version="1.0" encoding="utf-8"?>
<!-- Generator: Adobe Illustrator 27.9.0, SVG Export Plug-In . SVG Version: 6.00 Build 0)  -->
<svg version="1.1" id="Layer_1" xmlns="http://www.w3.org/2000/svg" xmlns:xlink="http://www.w3.org/1999/xlink" x="0px" y="0px"
	 viewBox="0 0 102.3 65.6" style="enable-background:new 0 0 102.3 65.6;" xml:space="preserve">
<style type="text/css">
	.st0{fill:#EFEFEF;}
</style>
<path class="st0" d="M18.4,52.8c0.3-2.8,1.4-5.4,3.2-7.6c2.1-2.5,4.9-4.1,8.1-4.6c0.6-0.1,1-0.3,1.1-0.9c1.3-5.2,4.2-9.9,8.2-13.5
	l3.5-2.7c3.7-2.2,7.8-3.6,12.1-3.9c10-0.6,18,3.2,24,11.2c0.5,0.7,1.3,1.2,2.2,1.1c8,0.4,14.8,6,16.6,13.8c0.1,0.7,0.5,1.3,1.1,1.8
	c4.3,3.8,5.1,10.4,1.8,14.6c-1.6,1.9-3.8,3.2-6.3,3.5c-1,0.2-1.5-0.1-1.3-1.2c0-0.3,0-0.5,0-0.8c-0.1-1.3,0.2-2.1,1.7-2.1
	c0.9-0.1,1.6-0.5,2.2-1.2c2.5-2.4,2.6-6.3,0.3-8.8c-0.1-0.1-0.3-0.3-0.4-0.4c-1.6-1.5-2.7-3.4-3.2-5.5c-1.2-4.4-4.7-7.8-9.1-9l0,0
	c-0.1-0.2-0.3-0.3-0.5-0.2c-5.1-1.7-11.9,0.5-14.8,4.9c2.9,1.2,5.1,3.6,6,6.7c0.7,2.7,0.8,2.7-2,2.7c-0.2,0-0.3,0-0.5,0
	c-0.8,0.2-1-0.2-1.1-1c-0.4-2.8-2.8-5-5.6-5.1c-2.7-0.1-5.2,1.6-6.1,4.1c-0.2,0.7,0.1,1.6-0.6,1.9c-0.7,0.1-1.4,0.2-2.2,0.1
	c0,0-0.1,0-0.1,0c-1.3,0.3-1.3-0.5-1.2-1.4c0.6-4.1,3.8-7.5,7.9-8.3c0.6-0.1,1.2-0.1,1.5-0.7c1.9-3,4.7-5.4,8-6.9
	c0.5-0.2,1.1-0.4,1.7-0.5c0.7-0.1,0.6-0.4,0.3-0.8c-2.5-3.1-5.9-5.5-9.7-6.8l0,0c-0.1-0.2-0.3-0.3-0.5-0.2
	c-3.7-1.4-7.7-1.8-11.5-1.1c-9.7,1.6-17.3,9.2-18.8,18.9c-0.2,1.2-0.5,1.8-2,1.7c-3.6-0.3-7,1.6-8.6,4.8c-1.8,2.9-1.8,6.6,0.1,9.5
	c1.2,2.3,3.2,3,5.6,3h49.9c1.9,0,1.9,0,2,1.9c-0.1,2-0.1,2-2.2,2c-16.3,0-32.7-0.2-49,0.1c-8.3,0.1-11.5-6.2-11.6-11.6
	C18.4,53.6,18.4,53.2,18.4,52.8z"/>
<path class="st0" d="M84.9,63.5c0.1-1.9,0.1-1.9,2-1.9c0.2,0,0.3,0,0.5,0c1.1-0.2,1.6,0.2,1.3,1.4c0,0.2,0,0.3,0,0.5
	c-0.1,2-0.1,2-1.8,2C85,65.5,85,65.5,84.9,63.5z"/>
<path class="st0" d="M11.4,42.5c-2.4-2.2-4.3-4.9-5.5-8c-0.3-0.8-0.6-1.6-0.8-2.4c-2.6-9.1,1.4-19.6,9.1-24.2c7.6-5,17.5-4.9,25,0.3
	l0.3,0.2c0,0,3,2.1,3.5,2.7c0,0,0,0.1,0,0.1l2.5-3c-0.5-0.6-1.1-1.2-1.7-1.8c-0.2-0.2-0.5-0.4-0.8-0.6s-0.5-0.4-0.8-0.6l-0.5-0.4
	c-5.3-3.8-11.9-5.4-18.4-4.6c-4.1,0.4-8.1,1.9-11.6,4.2c-9.1,5.6-14,18-10.9,29c0.8,2.9,2,5.6,3.6,8.1l0,0c0.2,0.3,0.5,0.7,0.7,1
	c1,1.3,2.1,2.4,3.3,3.5l0,0c0.3,0.3,0.6,0.5,0.9,0.7l1.2,1c0.5,0.4,1,0.7,1.5,1l2.8-3.6l12.3-14.8l-3.5-2.8L11.4,42.5z"/>
<polygon class="st0" points="37.2,11.2 34,15.2 37.5,18 40.8,14 "/>
</svg>
