<?xml version="1.0" encoding="utf-8"?>
<!-- Generator: Adobe Illustrator 27.9.0, SVG Export Plug-In . SVG Version: 6.00 Build 0)  -->
<svg version="1.1" id="Layer_1" xmlns="http://www.w3.org/2000/svg" xmlns:xlink="http://www.w3.org/1999/xlink" x="0px" y="0px"
	 viewBox="0 0 115.2 69" style="enable-background:new 0 0 115.2 69;" xml:space="preserve">
<style type="text/css">
	.st0{fill:#03738c;}
</style>
<path class="st0" d="M31.3,56.2c0.3-2.8,1.4-5.4,3.2-7.6c2.1-2.5,4.9-4.1,8.1-4.6c0.6-0.1,1-0.3,1.2-0.9c1.3-5.2,4.2-9.9,8.2-13.5
	l3.5-2.7c3.7-2.2,7.8-3.6,12.1-3.9c10-0.6,18,3.2,24,11.2c0.5,0.7,1.3,1.2,2.2,1.1c8,0.4,14.8,6,16.6,13.8c0.1,0.7,0.5,1.3,1.1,1.8
	c4.3,3.8,5.1,10.4,1.8,14.6c-1.6,1.9-3.8,3.2-6.3,3.5c-1.1,0.2-1.5-0.1-1.3-1.2c0-0.3,0-0.5,0-0.8c-0.1-1.3,0.2-2.1,1.7-2.1
	c0.9-0.1,1.6-0.5,2.2-1.1c2.5-2.4,2.7-6.3,0.3-8.9c-0.1-0.1-0.3-0.3-0.4-0.4c-1.6-1.5-2.7-3.4-3.2-5.5c-1.2-4.4-4.7-7.8-9.1-9l0,0
	c-0.1-0.2-0.3-0.3-0.5-0.2c-5.1-1.7-11.9,0.5-14.8,4.9c2.9,1.2,5.1,3.6,6,6.7c0.7,2.7,0.8,2.7-2,2.7c-0.2,0-0.3,0-0.5,0
	c-0.8,0.2-1-0.2-1.1-1c-0.4-2.8-2.8-5-5.6-5.1c-2.7-0.1-5.2,1.6-6.1,4.1c-0.2,0.7,0.1,1.6-0.6,1.9c-0.7,0.2-1.4,0.2-2.2,0.1h-0.2
	c-1.3,0.3-1.3-0.5-1.2-1.4c0.6-4.1,3.8-7.5,7.9-8.3c0.6-0.1,1.2-0.1,1.5-0.7c1.9-3,4.7-5.4,8-6.9c0.5-0.2,1.1-0.4,1.7-0.5
	c0.7-0.1,0.6-0.4,0.3-0.8c-2.5-3.2-5.8-5.5-9.6-6.9l0,0c-0.1-0.2-0.3-0.3-0.5-0.2c-3.7-1.4-7.7-1.8-11.5-1.1
	c-9.7,1.6-17.3,9.3-18.9,19c-0.2,1.2-0.5,1.8-2,1.7c-3.6-0.3-7,1.6-8.6,4.8c-1.8,2.9-1.7,6.6,0.1,9.5c1.2,2.3,3.2,3,5.6,3h49.9
	c1.9,0,1.9,0,2,1.9c-0.1,2-0.1,2-2.2,2c-16.3,0-32.7-0.2-49,0.1c-8.3,0.1-11.5-6.2-11.6-11.6C31.3,57,31.3,56.6,31.3,56.2z"/>
<path class="st0" d="M97.8,66.9c0.1-1.9,0.1-1.9,2-1.9c0.2,0,0.3,0,0.5,0c1.1-0.2,1.6,0.2,1.3,1.4c0,0.2,0,0.3,0,0.5
	c-0.1,2-0.1,2-1.8,2C97.9,68.9,97.9,68.9,97.8,66.9z"/>
<path class="st0" d="M55,20.9c-1-1.9-2.3-3.6-3.8-5.1c-0.5-0.5-0.5-0.8-0.1-1.3c0.9-1,1.8-2.1,2.7-3.2C55.7,9,55.7,9,53.4,7.1
	c-0.7-0.5-0.9-0.4-1.4,0.2c-1.2,1.6-2.6,3.1-3.8,4.6c-0.5,0.6-0.9,0.7-1.5,0.2c-3.3-2.2-7.1-3.6-11-4c-0.7-0.1-0.9-0.3-0.9-1
	c0-1.4,0-2.9,0-4.3C34.8,0,34.8,0,32,0c-0.8,0-1,0.2-1,1c0.1,2,0,4.1,0,6.1c0,0.6,0,1-0.8,1c-4.1,0.4-8,1.8-11.3,4.1
	c-0.6,0.4-0.9,0.2-1.2-0.2c-0.8-1.1-1.7-2.1-2.6-3.1c-0.6-0.7-1.2-2-1.9-2.1S11.5,8,10.7,8.5c-0.6,0.4-0.5,0.7-0.1,1.2
	c1.4,1.6,2.7,3.2,4,4.8c0.4,0.5,0.6,0.8,0,1.3c-2.8,2.9-4.8,6.4-5.9,10.2c-0.2,0.7-0.5,0.9-1.2,0.8c-1.4-0.3-2.8-0.5-4.2-0.8
	c-2.7-0.4-2.6-0.4-3.2,2.4c-0.2,1,0.2,1.1,0.9,1.2c2,0.3,4,0.7,6,1c0.7,0.1,0.8,0.3,0.8,1c-0.3,4,0.4,8.1,2.1,11.8
	c0.3,0.6,0.2,0.9-0.4,1.2c-1.3,0.7-2.5,1.4-3.8,2.2c-2.5,1.5-2.5,1.5-1,4C5,51.3,5.3,51.4,5.9,51c1.7-1,3.5-2,5.2-3
	c0.7-0.4,1.1-0.5,1.6,0.3c1.9,2.7,4.4,4.9,7.2,6.6c0.8,0.5,2.2,0.6,2.3,1.5s-1,3.2-1.1,3.3c-0.3,0.6,3.4,1.8,3.5,1.7
	c0.5-0.2,0.8-2,1.2-3.1c0-0.1,0.1-0.2,0.1-0.2c0.1-0.3,0.2-0.6,0.6-0.5c0.6,0.2,0.7-0.3,0.8-0.7s0.3-0.9,0.4-1.3c0-0.2,0-0.4,0-0.6
	c0.5-0.9-0.1-1.1-0.8-1.4c-7.5-2.4-12.5-7.3-14.6-14.9c-2.5-9,1.6-19.1,9.2-23.4c2.6-1.9,5.7-3.1,9-3.3c9.6-0.8,16.9,3.1,21.6,11.6
	c0.3,0.5,0.5,0.8,1.2,0.4c0.4-0.2,0.8-0.4,1.2-0.5C55.9,22.6,55.9,22.6,55,20.9z"/>
</svg>
