<?xml version="1.0" encoding="utf-8"?>
<!-- Generator: Adobe Illustrator 27.9.0, SVG Export Plug-In . SVG Version: 6.00 Build 0)  -->
<svg version="1.1" id="Layer_1" xmlns="http://www.w3.org/2000/svg" xmlns:xlink="http://www.w3.org/1999/xlink" x="0px" y="0px"
	 viewBox="0 0 78.4 69.9" style="enable-background:new 0 0 78.4 69.9;" xml:space="preserve">
<style type="text/css">
	.st0{fill:#EFEFEF;}
</style>
<path class="st0" d="M0,31.1C0.3,28.5,1.4,26,3,24c1.9-2.3,4.6-3.9,7.6-4.3c0.6-0.1,0.9-0.2,1.1-0.9c1.2-4.9,3.9-9.3,7.7-12.6
	l3.3-2.5c3.4-2.1,7.3-3.3,11.3-3.7C43.2-0.5,50.7,3,56.3,10.5c0.5,0.7,1.2,1,2,1c7.5,0.4,13.8,5.6,15.5,12.9c0.1,0.6,0.5,1.2,1,1.6
	c4,3.6,4.8,9.7,1.6,13.6c-1.5,1.8-3.6,3-5.9,3.3c-1,0.2-1.4-0.1-1.2-1.1c0-0.2,0-0.5,0-0.7c-0.1-1.2,0.2-2,1.6-2
	c0.8-0.1,1.5-0.5,2.1-1.1c2.4-2.2,2.5-5.9,0.3-8.3c-0.1-0.1-0.3-0.3-0.4-0.4c-1.5-1.4-2.5-3.2-2.9-5.2c-1.1-4.1-4.4-7.3-8.5-8.4l0,0
	c-0.1-0.2-0.3-0.3-0.5-0.2c-4.8-1.6-11.1,0.5-13.8,4.6c2.7,1.1,4.8,3.4,5.6,6.2c0.7,2.5,0.7,2.5-1.9,2.5c-0.2,0-0.3,0-0.5,0
	c-0.7,0.1-0.9-0.2-1-0.9c-0.4-2.7-2.7-4.7-5.4-4.8c-2.5-0.1-4.8,1.5-5.7,3.9c-0.2,0.6,0.1,1.5-0.5,1.8c-0.7,0.1-1.3,0.2-2,0.1h-0.1
	c-1.2,0.3-1.2-0.4-1.1-1.3c0.6-3.9,3.5-7,7.3-7.8c0.5-0.1,1.1-0.1,1.4-0.6c1.8-2.8,4.4-5.1,7.4-6.4c0.5-0.2,1-0.4,1.6-0.5
	c0.6-0.1,0.6-0.4,0.2-0.8c-2.3-2.9-5.5-5.2-9-6.4l0,0c-0.1-0.2-0.3-0.2-0.5-0.2c-3.4-1.3-7.1-1.6-10.7-1c-9,1.5-16.1,8.6-17.6,17.7
	c-0.2,1.2-0.5,1.7-1.9,1.6c-3.3-0.3-6.5,1.5-8,4.5c-1.7,2.7-1.6,6.2,0.2,8.9c1.1,2.2,3,2.8,5.2,2.8h46.5c1.8,0,1.8,0,1.9,1.7
	c-0.1,1.9-0.1,1.9-2,1.9c-15.2,0-30.5-0.2-45.7,0.1C3.1,43.1,0.2,37.3,0,32.2C0,31.8,0,31.5,0,31.1z"/>
<path class="st0" d="M62.1,41.1c0.1-1.7,0.1-1.7,1.9-1.7c0.2,0,0.3,0,0.5,0c1-0.2,1.4,0.2,1.3,1.3c0,0.2,0,0.3,0,0.5
	C65.7,43,65.7,43,64.1,43C62.2,43,62.2,43,62.1,41.1z"/>
<path class="st0" d="M26.1,59.3l2.6,2.5l-1.8,1.7c-0.9-1-2-1.9-3-3c-0.8-1.1-2.1-1.6-3.4-1.4c-0.4,0-0.8,0-1.1,0c0,1,0,1.9,0,2.9
	c0.1,0.2,0.2,0.4,0.4,0.6c1.3,1.3,2.7,2.7,4.1,4.1l-1.8,1.6l-2.4-2.6l-0.2,0.1v4.1H17v-4.1l-0.2-0.1l-2.5,2.7l-1.8-1.8
	c1.1-1.1,2.1-2.2,3.3-3.3c0.8-0.6,1.3-1.7,1.1-2.7c0-0.5,0-1,0-1.5c-1,0-1.9,0-2.8,0c-0.3,0.1-0.5,0.2-0.7,0.4
	c-1.4,1.3-2.7,2.7-4.1,4l-1.8-1.7l2.7-2.5l-0.1-0.2H6.3v-2.4h4.2l-2.9-2.6l1.9-1.9c1.3,1.3,2.6,2.6,3.9,4c0.3,0.4,0.8,0.6,1.2,0.5
	c0.8,0,1.5,0,2.4,0c0-1,0-2,0-3c0-0.2-0.2-0.4-0.4-0.5c-1.3-1.3-2.7-2.7-4-4l1.8-1.8l2.6,2.8v-4.3h2.4v4.3l2.7-2.8l1.9,1.9
	c-0.4,0.3-0.8,0.6-1.2,1c-0.5,0.5-1.1,1.1-1.6,1.6c-2,2-2,2-1.7,4.9c1,0,1.9,0,2.9,0c0.2,0,0.4-0.2,0.6-0.4l3.9-3.9
	c0.1,0,0.1-0.1,0.2-0.1l1.6,1.8L26,56.5l0.1,0.2h4v2.4h-4L26.1,59.3z"/>
<path class="st0" d="M64,49.2c0.7,0.7,0.8,1.9,0.1,2.6l0,0c-1.6,1.7-3.3,3.3-4.9,4.9c-0.6,0.7-1.7,0.8-2.4,0.2
	c-0.7-0.6-0.8-1.7-0.2-2.4c0.1-0.1,0.1-0.1,0.2-0.2c1.7-1.7,3.3-3.4,5-5c0.5-0.6,1.3-0.8,2-0.4C63.8,49,63.9,49.1,64,49.2z"/>
<path class="st0" d="M43.7,49.2c0.7,0.7,0.7,1.7,0.1,2.5l0,0c-1.7,1.7-3.3,3.4-5,5c-0.7,0.7-1.7,0.7-2.4,0s-0.7-1.7,0-2.4
	c1.7-1.7,3.4-3.4,5.1-5.1c0.5-0.5,1.3-0.6,1.9-0.3C43.5,49.1,43.6,49.2,43.7,49.2z"/>
<path class="st0" d="M64,60.2c0.7,0.7,0.8,1.9,0.1,2.6l0,0c-1.6,1.7-3.3,3.3-4.9,4.9c-0.6,0.7-1.7,0.8-2.4,0.2
	c-0.7-0.6-0.8-1.7-0.2-2.4c0.1-0.1,0.1-0.1,0.2-0.2c1.7-1.7,3.3-3.4,5-5c0.5-0.6,1.3-0.8,2-0.4C63.8,60.1,63.9,60.2,64,60.2z"/>
<path class="st0" d="M43.7,60.3c0.7,0.7,0.7,1.7,0.1,2.5l0,0c-1.7,1.7-3.3,3.4-5,5.1c-0.7,0.7-1.7,0.7-2.4,0c-0.7-0.7-0.7-1.7,0-2.4
	c1.7-1.7,3.4-3.4,5.1-5.1c0.5-0.6,1.2-0.7,1.9-0.4C43.5,60.1,43.6,60.2,43.7,60.3z"/>
</svg>
