<?xml version="1.0" encoding="utf-8"?>
<!-- Generator: Adobe Illustrator 27.9.0, SVG Export Plug-In . SVG Version: 6.00 Build 0)  -->
<svg version="1.1" id="Layer_1" xmlns="http://www.w3.org/2000/svg" xmlns:xlink="http://www.w3.org/1999/xlink" x="0px" y="0px"
	 viewBox="0 0 106.8 87.6" style="enable-background:new 0 0 106.8 87.6;" xml:space="preserve">
<style type="text/css">
	.st0{fill:#EFEFEF;}
</style>
<path class="st0" d="M53.4,77l2.7,2.5l-1.8,1.7c-0.9-1-2-1.9-3-3c-0.8-1.1-2.1-1.6-3.4-1.4c-0.4,0-0.8,0-1.1,0c0,1,0,1.9,0,2.9
	c0.1,0.2,0.2,0.4,0.4,0.6c1.3,1.3,2.7,2.7,4.1,4.1l-1.7,1.6L47,83.3l-0.2,0.1v4.1h-2.4v-4.1l-0.2-0.1l-2.5,2.7L40,84.3
	c1-1.1,2.1-2.3,3.3-3.3c0.8-0.6,1.3-1.7,1.1-2.7c0-0.5,0-1,0-1.5c-1,0-1.9,0-2.8,0c-0.3,0.1-0.5,0.2-0.7,0.4c-1.3,1.3-2.7,2.7-4,4
	l-1.8-1.8l2.6-2.4l-0.1-0.2h-4.1v-2.5h4.2L35,71.8l1.9-1.9c1.3,1.3,2.7,2.6,3.9,4c0.3,0.4,0.8,0.6,1.2,0.5c0.8,0,1.5,0,2.4,0
	c0-1,0-2,0-3c0-0.2-0.2-0.4-0.4-0.5c-1.3-1.3-2.7-2.7-4-4l1.7-1.9l2.7,2.8v-4.3h2.4v4.3l2.7-2.8l1.9,1.9c-0.4,0.3-0.8,0.6-1.2,1
	c-0.5,0.5-1.1,1.1-1.6,1.6c-2,2-2,2-1.7,4.9c1,0,1.9,0,2.9,0c0.2,0,0.4-0.2,0.6-0.4l3.9-4c0.1,0,0.1-0.1,0.2-0.1l1.6,1.8l-2.6,2.4
	l0.1,0.2h4v2.4h-4L53.4,77z"/>
<path class="st0" d="M91.3,66.8c0.7,0.7,0.8,1.9,0.1,2.6l0,0c-1.6,1.7-3.3,3.3-4.9,4.9c-0.7,0.7-1.7,0.7-2.4,0
	c-0.7-0.7-0.7-1.7,0-2.4c1.7-1.7,3.3-3.4,5-5c0.5-0.6,1.3-0.8,2-0.4L91.3,66.8z"/>
<path class="st0" d="M71.1,66.9c0.7,0.7,0.7,1.7,0.1,2.5l0,0c-1.7,1.7-3.3,3.4-5,5c-0.6,0.7-1.7,0.7-2.4,0.1
	c-0.7-0.6-0.7-1.7-0.1-2.4c1.7-1.7,3.4-3.4,5.1-5.1c0.5-0.6,1.3-0.7,1.9-0.3C70.9,66.6,71,66.8,71.1,66.9z"/>
<path class="st0" d="M91.3,77.9c0.7,0.7,0.8,1.9,0.1,2.6l0,0c-1.6,1.7-3.3,3.3-4.9,4.9c-0.6,0.7-1.7,0.8-2.4,0.2s-0.8-1.7-0.2-2.4
	c0.1-0.1,0.1-0.1,0.2-0.2c1.7-1.7,3.3-3.4,5-5c0.5-0.6,1.3-0.8,2-0.4L91.3,77.9z"/>
<path class="st0" d="M71.1,78c0.7,0.7,0.7,1.7,0.1,2.5l0,0c-1.7,1.7-3.3,3.4-5,5.1c-0.7,0.7-1.7,0.7-2.4,0c-0.7-0.7-0.7-1.7,0-2.4
	c1.7-1.7,3.4-3.4,5.1-5.1c0.5-0.6,1.3-0.7,1.9-0.3C70.9,77.8,71,77.9,71.1,78z"/>
<path class="st0" d="M26.4,49.8c0.3-2.7,1.4-5.2,3.1-7.3c2-2.4,4.7-3.9,7.8-4.4c0.6-0.1,1-0.2,1.1-0.9c1.3-5,4-9.5,7.9-12.9l3.4-2.6
	c3.5-2.1,7.5-3.4,11.6-3.7c9.6-0.6,17.2,3.1,23,10.7c0.5,0.7,1.2,1.1,2.1,1.1c7.6,0.4,14.1,5.8,15.8,13.2c0.1,0.7,0.5,1.3,1,1.7
	c4.2,3.7,4.9,9.9,1.7,13.9c-1.5,1.8-3.6,3-6,3.4c-1,0.2-1.5-0.1-1.3-1.2c0-0.2,0-0.5,0-0.7c-0.1-1.2,0.2-2,1.7-2
	c0.8-0.1,1.6-0.5,2.1-1.1c2.4-2.3,2.6-6.1,0.3-8.5c-0.1-0.1-0.3-0.3-0.4-0.4c-1.5-1.4-2.5-3.3-3-5.3c-1.2-4.2-4.5-7.5-8.7-8.6l0,0
	C89.4,34,89.2,33.9,89,34c-4.9-1.6-11.4,0.5-14.2,4.7c2.7,1.1,4.8,3.4,5.6,6.3c0.7,2.5,0.7,2.5-1.9,2.5c-0.2,0-0.3,0-0.5,0
	c-0.8,0.1-0.9-0.2-1-0.9c-0.4-2.7-2.6-4.8-5.4-4.9c-2.6-0.1-5,1.5-5.8,3.9c-0.2,0.6,0.1,1.5-0.6,1.8c-0.7,0.1-1.4,0.2-2,0.1H63
	c-1.2,0.3-1.3-0.4-1.2-1.4c0.6-4,3.6-7.2,7.5-8c0.5-0.1,1.1-0.1,1.5-0.7c1.9-2.9,4.5-5.1,7.6-6.5c0.5-0.2,1.1-0.4,1.6-0.5
	c0.7-0.1,0.6-0.4,0.3-0.8c-2.4-3-5.6-5.3-9.2-6.6l0,0c-0.1-0.2-0.3-0.2-0.5-0.2c-3.5-1.3-7.3-1.7-11-1c-9.3,1.5-16.5,8.8-18,18.1
	c-0.2,1.2-0.5,1.7-1.9,1.7c-3.4-0.3-6.7,1.5-8.2,4.6c-1.7,2.8-1.7,6.3,0.1,9.1c1.1,2.2,3,2.9,5.3,2.9h47.8c1.8,0,1.8,0,2,1.8
	c-0.2,2-0.2,2-2.1,2c-15.6,0-31.3-0.2-46.9,0.1c-8,0.1-11-5.9-11.1-11.1C26.4,50.5,26.4,50.2,26.4,49.8z"/>
<path class="st0" d="M90.1,60.1c0.1-1.8,0.1-1.8,1.9-1.8c0.2,0,0.3,0,0.5,0c1.1-0.2,1.5,0.2,1.3,1.3c0,0.2,0,0.3,0,0.5
	c-0.1,2-0.1,2-1.7,2C90.2,62,90.2,62,90.1,60.1z"/>
<path class="st0" d="M47.7,18.1c-0.9-1.6-2-3.1-3.3-4.4c-0.4-0.4-0.5-0.7-0.1-1.1c0.8-0.9,1.6-1.9,2.4-2.8c1.7-2,1.6-1.9-0.3-3.6
	c-0.6-0.5-0.8-0.4-1.2,0.2c-1.1,1.4-2.3,2.6-3.3,4c-0.5,0.6-0.8,0.6-1.3,0.2c-2.8-1.9-6.1-3.1-9.5-3.4c-0.6,0-0.8-0.3-0.8-0.9
	c0-1.2,0-2.5,0-3.8c0-2.4,0-2.4-2.5-2.4c-0.7,0-0.9,0.2-0.9,0.9c0,1.8,0,3.6,0,5.3c0,0.5,0,0.8-0.7,0.9c-3.5,0.3-6.9,1.5-9.9,3.6
	c-0.5,0.3-0.8,0.2-1.1-0.2c-0.7-0.9-1.5-1.8-2.3-2.7c-0.5-0.6-1-1.7-1.7-1.8s-1.3,1-2.1,1.5C8.8,7.7,8.8,8,9.2,8.4
	c1.2,1.4,2.3,2.8,3.5,4.1c0.4,0.4,0.5,0.7,0,1.1c-2.4,2.5-4.2,5.5-5.2,8.9c-0.2,0.6-0.5,0.8-1.1,0.7C5.2,23,4,22.8,2.8,22.6
	c-2.3-0.4-2.3-0.4-2.8,2.1c-0.2,0.8,0.2,0.9,0.8,1c1.7,0.3,3.5,0.6,5.2,0.9c0.6,0.1,0.7,0.3,0.7,0.9c-0.3,3.5,0.4,7,1.8,10.2
	c0.2,0.5,0.2,0.8-0.3,1c-1.1,0.6-2.2,1.3-3.3,1.9c-2.2,1.3-2.2,1.3-0.9,3.5c0.3,0.5,0.6,0.6,1.1,0.3c1.5-0.9,3-1.7,4.5-2.6
	c0.6-0.4,0.9-0.4,1.4,0.3c1.7,2.3,3.8,4.2,6.2,5.7c0.7,0.4,1.9,0.5,2,1.3s-0.9,2.8-1,2.9c-0.2,0.5,3,1.5,3,1.5
	c0.4-0.1,0.7-1.7,1-2.7c0-0.1,0.1-0.1,0.1-0.2c0.1-0.3,0.2-0.5,0.5-0.4c0.5,0.1,0.6-0.2,0.7-0.6s0.2-0.8,0.4-1.2c0-0.2,0-0.4,0-0.5
	c0.4-0.8-0.1-1-0.7-1.2c-6.3-1.7-11.1-6.7-12.7-13c-2-7.8,1.5-16.6,8.1-20.3c2.3-1.7,5-2.6,7.8-2.8c8.4-0.7,14.6,2.7,18.7,10
	c0.2,0.5,0.5,0.7,1,0.4c0.3-0.2,0.7-0.3,1-0.4C48.5,19.6,48.5,19.6,47.7,18.1z"/>
</svg>
