<?xml version="1.0" encoding="utf-8"?>
<!-- Generator: Adobe Illustrator 27.9.0, SVG Export Plug-In . SVG Version: 6.00 Build 0)  -->
<svg version="1.1" id="Layer_1" xmlns="http://www.w3.org/2000/svg" xmlns:xlink="http://www.w3.org/1999/xlink" x="0px" y="0px"
	 viewBox="0 0 78.4 67.7" style="enable-background:new 0 0 78.4 67.7;" xml:space="preserve">
<style type="text/css">
	.st0{fill:#EFEFEF;}
</style>
<path class="st0" d="M63.5,48.4c0.7,0.7,0.8,1.9,0.1,2.6l0,0c-1.6,1.7-3.3,3.3-4.9,4.9c-0.6,0.7-1.7,0.8-2.4,0.3
	c0,0-0.1-0.1-0.1-0.1c-0.7-0.6-0.7-1.7,0-2.4c0,0,0.1-0.1,0.1-0.1c1.7-1.7,3.3-3.4,5-5c0.5-0.6,1.3-0.8,2-0.4L63.5,48.4z"/>
<path class="st0" d="M43.2,48.5c0.7,0.7,0.7,1.8,0.1,2.5l0,0c-1.7,1.7-3.3,3.4-5,5c-0.7,0.7-1.7,0.7-2.4,0s-0.7-1.7,0-2.4
	c1.7-1.7,3.4-3.4,5.1-5.1c0.5-0.6,1.3-0.7,1.9-0.3C43,48.3,43.1,48.4,43.2,48.5z"/>
<path class="st0" d="M14.9,54.8c0.2-0.4,0.4-0.8,0.6-1.1c1.7-1.7,3.4-3.4,5.1-5.1c0.6-0.7,1.7-0.8,2.4-0.2c0,0,0.1,0.1,0.1,0.1
	c0.7,0.6,0.7,1.7,0.1,2.3c0,0-0.1,0.1-0.1,0.1c-1.7,1.7-3.4,3.4-5,5c-0.5,0.6-1.3,0.7-2,0.4C15.4,56.1,14.9,55.5,14.9,54.8z"/>
<path class="st0" d="M63.5,59.5c0.7,0.7,0.8,1.9,0.1,2.6l0,0c-1.6,1.7-3.3,3.3-4.9,4.9c-0.6,0.7-1.7,0.8-2.4,0.3
	c0,0-0.1-0.1-0.1-0.1c-0.7-0.6-0.7-1.7,0-2.4c0,0,0.1-0.1,0.1-0.1c1.7-1.7,3.3-3.4,5-5c0.5-0.6,1.3-0.8,2-0.4L63.5,59.5z"/>
<path class="st0" d="M43.2,59.6c0.7,0.7,0.7,1.7,0.1,2.5l0,0c-1.7,1.7-3.3,3.4-5,5c-0.7,0.7-1.7,0.7-2.4,0c-0.7-0.7-0.7-1.7,0-2.4
	c1.7-1.7,3.4-3.4,5.1-5.1c0.5-0.6,1.3-0.7,1.9-0.3C43,59.3,43.1,59.5,43.2,59.6z"/>
<path class="st0" d="M14.9,65.9c0.2-0.4,0.4-0.8,0.6-1.1c1.7-1.7,3.4-3.4,5.1-5.1c0.7-0.7,1.7-0.7,2.4,0c0.7,0.7,0.7,1.7,0,2.4l0,0
	c-1.7,1.7-3.4,3.4-5,5c-0.5,0.6-1.3,0.7-2,0.4C15.4,67.2,14.9,66.6,14.9,65.9z"/>
<path class="st0" d="M0,31.1C0.3,28.5,1.4,26,3,24c1.9-2.3,4.6-3.9,7.6-4.3c0.6-0.1,0.9-0.2,1.1-0.9c1.2-4.9,3.9-9.3,7.7-12.6
	l3.3-2.5c3.4-2.1,7.3-3.3,11.3-3.7C43.2-0.5,50.7,3,56.3,10.5c0.5,0.7,1.2,1,2,1c7.5,0.4,13.8,5.6,15.5,12.9c0.1,0.6,0.5,1.2,1,1.6
	c4,3.6,4.8,9.7,1.6,13.6c-1.5,1.8-3.6,3-5.9,3.3c-1,0.2-1.4-0.1-1.2-1.1c0-0.2,0-0.5,0-0.7c-0.1-1.2,0.2-2,1.6-2
	c0.8-0.1,1.5-0.5,2.1-1.1c2.4-2.2,2.5-5.9,0.3-8.3c-0.1-0.1-0.3-0.3-0.4-0.4c-1.5-1.4-2.5-3.2-2.9-5.2c-1.1-4.1-4.4-7.3-8.5-8.4l0,0
	c-0.1-0.2-0.3-0.3-0.5-0.2c-4.8-1.6-11.1,0.5-13.8,4.6c2.7,1.1,4.8,3.4,5.6,6.2c0.7,2.5,0.7,2.5-1.9,2.5c-0.2,0-0.3,0-0.5,0
	c-0.7,0.1-0.9-0.2-1-0.9c-0.4-2.7-2.7-4.7-5.4-4.8c-2.5-0.1-4.8,1.5-5.7,3.9c-0.2,0.6,0.1,1.5-0.5,1.8c-0.7,0.1-1.3,0.2-2,0.1h-0.1
	c-1.2,0.3-1.2-0.4-1.1-1.3c0.6-3.9,3.5-7,7.3-7.8c0.5-0.1,1.1-0.1,1.4-0.6c1.8-2.8,4.4-5.1,7.4-6.4c0.5-0.2,1-0.4,1.6-0.5
	c0.6-0.1,0.6-0.4,0.2-0.8c-2.3-2.9-5.5-5.2-9-6.4l0,0c-0.1-0.2-0.3-0.2-0.5-0.2c-3.4-1.3-7.1-1.6-10.7-1c-9,1.5-16.1,8.6-17.6,17.7
	c-0.2,1.2-0.5,1.7-1.9,1.6c-3.3-0.3-6.5,1.5-8,4.5c-1.7,2.7-1.6,6.2,0.2,8.9c1.1,2.2,3,2.8,5.2,2.8h46.5c1.8,0,1.8,0,1.9,1.7
	c-0.1,1.9-0.1,1.9-2,1.9c-15.2,0-30.5-0.2-45.7,0.1C3.1,43.1,0.2,37.3,0,32.2C0,31.8,0,31.5,0,31.1z"/>
<path class="st0" d="M62.1,41.1c0.1-1.7,0.1-1.7,1.9-1.7c0.2,0,0.3,0,0.5,0c1-0.2,1.4,0.2,1.3,1.3c0,0.2,0,0.3,0,0.5
	C65.7,43,65.7,43,64.1,43C62.2,43,62.2,43,62.1,41.1z"/>
</svg>
