<?xml version="1.0" encoding="utf-8"?>
<!-- Generator: Adobe Illustrator 27.9.0, SVG Export Plug-In . SVG Version: 6.00 Build 0)  -->
<svg version="1.1" id="Layer_1" xmlns="http://www.w3.org/2000/svg" xmlns:xlink="http://www.w3.org/1999/xlink" x="0px" y="0px"
	 viewBox="0 0 92.1 85.1" style="enable-background:new 0 0 92.1 85.1;" xml:space="preserve">
<style type="text/css">
	.st0{fill:#EFEFEF;}
</style>
<path class="st0" d="M16.5,47.5c0.3-2.5,1.3-4.9,2.9-6.9c1.8-2.2,4.4-3.7,7.3-4.2c0.6-0.1,0.9-0.2,1-0.8c1.2-4.7,3.8-8.9,7.4-12.2
	l3.2-2.4c3.3-2,7.1-3.2,10.9-3.5c9-0.5,16.2,2.9,21.6,10.1c0.4,0.7,1.2,1,2,1C80,29,86.1,34.1,87.8,41.1c0.1,0.6,0.5,1.2,1,1.6
	c3.9,3.5,4.6,9.3,1.6,13.1c-1.4,1.8-3.5,2.9-5.8,3.2c-0.9,0.2-1.4-0.1-1.2-1.1c0-0.2,0-0.5,0-0.7c-0.1-1.2,0.2-1.9,1.6-1.9
	c0.8-0.1,1.5-0.4,2-1c2.3-2.1,2.4-5.7,0.3-8c-0.1-0.1-0.3-0.3-0.4-0.4c-1.4-1.4-2.4-3.1-2.8-5c-1.1-4-4.2-7-8.2-8.1l0,0
	c-0.1-0.2-0.3-0.3-0.5-0.2c-4.6-1.5-10.8,0.5-13.3,4.5c2.6,1.1,4.6,3.3,5.4,6c0.7,2.4,0.7,2.4-1.8,2.4c-0.2,0-0.3,0-0.5,0
	c-0.7,0.1-0.9-0.2-1-0.9c-0.4-2.6-2.5-4.5-5.1-4.7c-2.4-0.1-4.7,1.4-5.5,3.7c-0.2,0.6,0.1,1.5-0.5,1.7c-0.6,0.1-1.3,0.2-1.9,0.1
	c0,0-0.1,0-0.1,0c-1.2,0.3-1.2-0.4-1.1-1.3c0.6-3.7,3.4-6.7,7.1-7.5c0.5-0.1,1-0.1,1.4-0.6c1.7-2.7,4.2-4.9,7.2-6.2
	c0.5-0.2,1-0.4,1.5-0.5c0.6-0.1,0.6-0.3,0.2-0.7c-2.2-2.8-5.3-5-8.7-6.2l0,0c-0.1-0.2-0.3-0.3-0.5-0.2c-3.3-1.3-6.9-1.6-10.3-1
	c-8.7,1.4-15.6,8.3-17,17c-0.1,1.1-0.4,1.7-1.7,1.5c-3.2-0.3-6.3,1.5-7.8,4.3c-1.6,2.6-1.6,6,0.1,8.6c1,2.1,2.9,2.7,5,2.7h44.9
	c1.7,0,1.7,0,1.8,1.7C73,59,73,59,71.2,59c-14.7,0-29.4-0.2-44.1,0.1c-7.5,0.1-10.3-5.6-10.5-10.5C16.5,48.2,16.5,47.9,16.5,47.5z"
	/>
<path class="st0" d="M76.4,57.2c0.1-1.7,0.1-1.7,1.8-1.7c0.2,0,0.3,0,0.5,0c1-0.2,1.4,0.2,1.2,1.2c0,0.1,0,0.3,0,0.5
	C79.9,59,79.9,59,78.3,59C76.5,59,76.5,59,76.4,57.2z"/>
<path class="st0" d="M10.3,38.2c-2.2-2-3.9-4.4-5-7.2c-0.3-0.7-0.5-1.4-0.7-2.2c-2.3-8.3,1.3-17.7,8.2-21.8
	c6.9-4.5,15.8-4.4,22.5,0.3l0.3,0.2c0,0,2.7,1.9,3.2,2.5c0,0,0,0,0,0.1L41,7.4c-0.5-0.6-1.1-1.1-1.6-1.6c-0.2-0.2-0.5-0.4-0.7-0.6
	S38.3,4.8,38,4.6l-0.4-0.3c-4.8-3.4-10.7-4.9-16.5-4.1C17.3,0.6,13.8,1.9,10.7,4C2.4,9-1.9,20.1,0.8,30.1c0.7,2.6,1.8,5,3.3,7.3l0,0
	c0.2,0.3,0.4,0.6,0.7,0.9c0.9,1.1,1.8,2.2,2.9,3.1l0,0c0.3,0.2,0.6,0.4,0.9,0.6l1.1,0.9c0.4,0.3,0.9,0.6,1.3,0.9l2.6-3.1l11-13.3
	l-3.2-2.5L10.3,38.2z"/>
<polygon class="st0" points="33.5,10.1 30.6,13.6 33.7,16.2 36.7,12.6 "/>
<path class="st0" d="M39.3,74.5L42,77l-1.8,1.7c-0.9-1-2-1.9-3-3c-0.8-1.1-2.1-1.6-3.4-1.4c-0.4,0-0.8,0-1.1,0c0,1,0,1.9,0,2.9
	c0.1,0.2,0.2,0.4,0.4,0.6c1.3,1.3,2.7,2.7,4.1,4.1l-1.8,1.6L33,80.9L32.8,81v4.1h-2.5V81l-0.2-0.1l-2.5,2.7l-1.8-1.8
	c1.1-1.1,2.1-2.2,3.3-3.3c0.8-0.6,1.3-1.7,1.1-2.7c0-0.5,0-1,0-1.5c-1,0-1.9,0-2.8,0c-0.3,0.1-0.5,0.2-0.7,0.4
	c-1.4,1.3-2.7,2.7-4,4.1L21,77l2.7-2.5l-0.1-0.2h-4.1v-2.4h4.2l-2.9-2.6l1.9-1.9c1.3,1.3,2.6,2.6,3.9,3.9c0.3,0.4,0.8,0.6,1.2,0.5
	c0.8,0,1.5,0,2.4,0c0-1,0-2,0-3c0-0.2-0.2-0.4-0.4-0.5c-1.4-1.3-2.7-2.7-4-4l1.8-1.8l2.7,2.8v-4.3h2.4v4.3l2.7-2.8l1.9,1.9
	c-0.4,0.3-0.8,0.6-1.2,1c-0.5,0.5-1.1,1.1-1.6,1.6c-2,2-2,2-1.7,4.9c1,0,1.9,0,2.9,0c0.2,0,0.4-0.2,0.6-0.4l3.9-3.9
	c0.1,0,0.1-0.1,0.2-0.1l1.6,1.8l-2.6,2.4l0.1,0.2h4.1v2.4h-4.1L39.3,74.5z"/>
<path class="st0" d="M77.2,64.3c0.8,0.7,0.8,1.9,0.1,2.7c0,0,0,0,0,0l0,0c-1.6,1.7-3.3,3.3-4.9,4.9c-0.6,0.7-1.7,0.8-2.4,0.2
	c-0.7-0.6-0.8-1.7-0.2-2.4c0.1-0.1,0.1-0.1,0.2-0.2c1.7-1.7,3.4-3.4,5-5c0.5-0.6,1.3-0.8,2-0.4C77.1,64.2,77.2,64.3,77.2,64.3z"/>
<path class="st0" d="M57,64.4c0.7,0.7,0.7,1.7,0.1,2.5l0,0c-1.7,1.7-3.3,3.4-5,5c-0.6,0.7-1.7,0.8-2.4,0.2c0,0-0.1-0.1-0.1-0.1
	c-0.7-0.7-0.7-1.7,0-2.4c0,0,0.1-0.1,0.1-0.1c1.7-1.7,3.4-3.4,5.1-5.1c0.5-0.6,1.3-0.7,1.9-0.3C56.8,64.2,56.9,64.3,57,64.4z"/>
<path class="st0" d="M77.2,75.4c0.7,0.7,0.8,1.8,0.1,2.6l0,0c-1.6,1.7-3.3,3.4-4.9,5c-0.6,0.7-1.6,0.9-2.4,0.3
	c-0.7-0.6-0.9-1.6-0.3-2.4c0.1-0.1,0.2-0.2,0.3-0.3c1.7-1.7,3.4-3.4,5-5c0.5-0.6,1.3-0.8,2-0.4C77.1,75.3,77.2,75.4,77.2,75.4z"/>
<path class="st0" d="M57,75.5c0.7,0.7,0.7,1.8,0.1,2.5l0,0c-1.7,1.7-3.3,3.4-5,5c-0.6,0.7-1.7,0.8-2.4,0.2c0,0-0.1-0.1-0.1-0.1
	c-0.7-0.7-0.7-1.7,0-2.4c0,0,0.1-0.1,0.1-0.1c1.7-1.7,3.4-3.4,5.1-5.1c0.5-0.6,1.3-0.7,1.9-0.3C56.8,75.3,56.9,75.4,57,75.5z"/>
</svg>
