<?xml version="1.0" encoding="utf-8"?>
<!-- Generator: Adobe Illustrator 27.9.0, SVG Export Plug-In . SVG Version: 6.00 Build 0)  -->
<svg version="1.1" id="Layer_1" xmlns="http://www.w3.org/2000/svg" xmlns:xlink="http://www.w3.org/1999/xlink" x="0px" y="0px"
	 viewBox="0 0 111.5 91.2" style="enable-background:new 0 0 111.5 91.2;" xml:space="preserve">
<style type="text/css">
	.st0{fill:#EFEFEF;}
</style>
<path class="st0" d="M94.7,71.9c0.7,0.7,0.8,1.9,0.1,2.6l0,0c-1.6,1.7-3.3,3.3-4.9,4.9c-0.6,0.7-1.6,0.8-2.4,0.3
	c-0.1,0-0.1-0.1-0.2-0.1c-0.7-0.6-0.7-1.7,0-2.4c0,0,0.1-0.1,0.1-0.1c1.7-1.7,3.3-3.4,5-5c0.5-0.6,1.3-0.8,2-0.4
	C94.6,71.8,94.7,71.9,94.7,71.9z"/>
<path class="st0" d="M74.5,72c0.7,0.7,0.7,1.7,0.1,2.5l0,0c-1.7,1.7-3.3,3.4-5,5.1c-0.6,0.7-1.7,0.8-2.4,0.2S66.4,78,67,77.3
	c0-0.1,0.1-0.1,0.2-0.2c1.7-1.7,3.4-3.4,5.1-5.1c0.5-0.6,1.3-0.7,1.9-0.3C74.3,71.8,74.4,71.9,74.5,72z"/>
<path class="st0" d="M46.1,78.3c0.2-0.4,0.4-0.8,0.6-1.1c1.7-1.7,3.4-3.4,5.1-5.1c0.7-0.7,1.7-0.6,2.4,0c0.7,0.7,0.6,1.7,0,2.4l0,0
	c-1.7,1.7-3.4,3.4-5,5c-0.5,0.6-1.3,0.8-2,0.4C46.6,79.6,46.2,79,46.1,78.3z"/>
<path class="st0" d="M94.7,83c0.7,0.7,0.8,1.9,0.1,2.6l0,0c-1.6,1.7-3.3,3.3-4.9,4.9c-0.6,0.7-1.6,0.8-2.4,0.3
	c-0.1,0-0.1-0.1-0.2-0.1c-0.7-0.6-0.7-1.7,0-2.4c0,0,0.1-0.1,0.1-0.1c1.7-1.7,3.3-3.4,5-5c0.5-0.6,1.3-0.8,2-0.4
	C94.6,82.9,94.7,82.9,94.7,83z"/>
<path class="st0" d="M74.5,83.1c0.7,0.7,0.7,1.7,0.1,2.5l0,0c-1.7,1.7-3.3,3.4-5,5.1c-0.6,0.7-1.7,0.8-2.4,0.2s-0.8-1.7-0.2-2.4
	c0-0.1,0.1-0.1,0.2-0.2c1.7-1.7,3.4-3.4,5.1-5.1c0.5-0.6,1.3-0.7,1.9-0.3C74.3,82.9,74.4,83,74.5,83.1z"/>
<path class="st0" d="M46.1,89.4c0.2-0.4,0.4-0.8,0.6-1.1c1.7-1.7,3.4-3.4,5.1-5.1c0.7-0.7,1.7-0.6,2.4,0c0.7,0.7,0.6,1.7,0,2.4l0,0
	c-1.7,1.7-3.4,3.4-5,5c-0.5,0.6-1.3,0.8-2,0.4C46.6,90.7,46.2,90.1,46.1,89.4z"/>
<path class="st0" d="M30.3,54.4c0.3-2.7,1.4-5.3,3.1-7.4c2-2.4,4.8-4,7.8-4.5c0.6-0.1,1-0.3,1.1-0.9c1.3-5.1,4-9.6,7.9-13.1l3.4-2.6
	c3.6-2.2,7.6-3.5,11.7-3.8c9.7-0.6,17.4,3.1,23.2,10.8c0.5,0.7,1.3,1.1,2.1,1.1c7.7,0.4,14.2,5.8,16,13.3c0.1,0.7,0.5,1.3,1,1.7
	c4.2,3.7,5,10,1.7,14.1c-1.5,1.9-3.7,3.1-6.1,3.4c-1,0.2-1.5-0.1-1.3-1.2c0-0.2,0-0.5,0-0.7c-0.1-1.2,0.2-2,1.7-2
	c0.8-0.1,1.6-0.5,2.2-1.1c2.5-2.3,2.6-6.1,0.3-8.6c-0.1-0.2-0.3-0.3-0.4-0.4c-1.5-1.5-2.6-3.3-3.1-5.4c-1.2-4.2-4.5-7.5-8.7-8.7l0,0
	c-0.1-0.2-0.3-0.3-0.5-0.2c-5-1.7-11.6,0.5-14.3,4.8c2.8,1.1,4.9,3.5,5.8,6.4c0.7,2.6,0.7,2.6-1.9,2.6c-0.2,0-0.3,0-0.5,0
	c-0.8,0.1-1-0.2-1.1-0.9c-0.4-2.8-2.7-4.9-5.4-5c-2.6-0.1-5,1.5-5.9,4c-0.2,0.6,0.1,1.6-0.6,1.8c-0.7,0.1-1.4,0.2-2.1,0.1h-0.1
	c-1.3,0.3-1.3-0.5-1.2-1.4c0.6-4,3.7-7.2,7.6-8c0.5-0.1,1.1-0.1,1.5-0.7c1.9-2.9,4.5-5.2,7.7-6.7c0.5-0.2,1.1-0.4,1.6-0.5
	c0.7-0.1,0.6-0.4,0.3-0.8c-2.4-3.1-5.7-5.4-9.3-6.7l0,0c-0.1-0.2-0.3-0.2-0.5-0.2c-3.5-1.3-7.4-1.7-11.1-1
	c-9.4,1.5-16.7,8.9-18.3,18.3c-0.2,1.2-0.5,1.7-1.9,1.7c-3.5-0.3-6.8,1.6-8.3,4.7c-1.7,2.8-1.7,6.4,0.1,9.2c1.1,2.2,3.1,2.9,5.4,2.9
	h48.3c1.9,0,1.9,0,2,1.8C91,66.7,91,66.7,89,66.7c-15.8,0-31.6-0.2-47.4,0.1c-8.1,0.1-11.1-6-11.3-11.2
	C30.3,55.1,30.3,54.7,30.3,54.4z"/>
<path class="st0" d="M94.7,64.7c0.1-1.8,0.1-1.8,2-1.8c0.2,0,0.3,0,0.5,0c1.1-0.2,1.5,0.2,1.3,1.3c0,0.2,0,0.3,0,0.5
	c-0.1,1.9-0.1,1.9-1.8,1.9C94.8,66.7,94.8,66.7,94.7,64.7z"/>
<path class="st0" d="M53.2,20.2c-1-1.8-2.2-3.5-3.7-4.9C49,14.8,49,14.5,49.5,14c0.9-1,1.8-2.1,2.6-3.1c1.8-2.2,1.8-2.2-0.4-4
	c-0.6-0.5-0.9-0.4-1.3,0.2c-1.2,1.5-2.5,2.9-3.7,4.5c-0.5,0.6-0.8,0.6-1.5,0.2C42,9.6,38.4,8.3,34.6,7.9c-0.7-0.1-0.9-0.3-0.9-1
	c0-1.4,0-2.8,0-4.2c0-2.7,0-2.7-2.8-2.7c-0.8,0-1,0.2-1,1c0.1,2,0,4,0,5.9c0,0.6,0,0.9-0.7,1c-4,0.4-7.7,1.7-11,4
	c-0.6,0.4-0.8,0.2-1.2-0.2c-0.8-1-1.7-2-2.5-3c-0.6-0.7-1.2-1.9-1.9-2s-1.4,1-2.2,1.5c-0.5,0.4-0.5,0.7-0.1,1.1
	c1.3,1.5,2.6,3.1,3.9,4.6c0.4,0.4,0.6,0.7,0,1.3c-2.7,2.8-4.7,6.2-5.8,9.9c-0.2,0.7-0.5,0.9-1.2,0.7c-1.4-0.3-2.7-0.5-4.1-0.7
	c-2.6-0.4-2.5-0.4-3.1,2.3c-0.2,0.9,0.2,1,0.9,1.1c1.9,0.3,3.9,0.7,5.8,1c0.7,0.1,0.8,0.3,0.7,1c-0.3,3.9,0.4,7.8,2,11.4
	c0.2,0.6,0.2,0.8-0.4,1.1c-1.2,0.7-2.4,1.4-3.6,2.1c-2.5,1.4-2.4,1.4-1,3.9c0.4,0.6,0.6,0.7,1.2,0.3c1.7-1,3.3-1.9,5-2.9
	c0.7-0.4,1-0.5,1.5,0.3c1.9,2.6,4.3,4.7,7,6.4c0.8,0.5,2.1,0.6,2.3,1.5s-1,3.1-1.1,3.2c-0.3,0.6,3.3,1.7,3.4,1.7
	c0.5-0.2,0.8-1.9,1.1-3c0-0.1,0.1-0.2,0.1-0.2c0.1-0.3,0.2-0.6,0.6-0.5c0.6,0.2,0.6-0.3,0.8-0.7s0.3-0.9,0.4-1.3c0-0.2,0-0.5,0-0.6
	c0.4-0.9-0.1-1.1-0.8-1.3c-7.3-2.3-12.1-7.1-14.2-14.5c-2.3-8.7,1.6-18.5,8.9-22.7c2.5-1.8,5.5-2.9,8.6-3.2
	c9.3-0.8,16.3,3,20.9,11.2c0.3,0.5,0.5,0.8,1.1,0.4c0.4-0.2,0.7-0.3,1.1-0.5C54.1,21.9,54.1,21.9,53.2,20.2z"/>
</svg>
