<?xml version="1.0" encoding="utf-8"?>
<!-- Generator: Adobe Illustrator 27.9.0, SVG Export Plug-In . SVG Version: 6.00 Build 0)  -->
<svg version="1.1" id="Layer_1" xmlns="http://www.w3.org/2000/svg" xmlns:xlink="http://www.w3.org/1999/xlink" x="0px" y="0px"
	 viewBox="0 0 78.6 57.1" style="enable-background:new 0 0 78.6 57.1;" xml:space="preserve">
<style type="text/css">
	.st0{fill:#EFEFEF;}
</style>
<path class="st0" d="M71.5,17.7c0,3.2,0,6.5,0,9.7c0,0.5,0.2,0.9,0.6,1.2c5.3,4.1,7.6,9.6,6.1,16.2s-5.8,10.5-12.4,11.9
	c-8.4,1.6-16.6-3.9-18.2-12.3c-0.1-0.3-0.1-0.5-0.1-0.8c-0.8-6.2,1.4-11.1,6.3-14.9c0.4-0.3,0.7-0.7,0.6-1.2c0-6.3,0-12.6,0-18.8
	C54.5,3.8,58.3,0,63,0c3.8,0,7.2,2.6,8.2,6.3c0.2,0.7,0.3,1.5,0.3,2.3C71.5,11.6,71.5,14.7,71.5,17.7z M68.7,18.6v-10
	c0.1-3.1-2.4-5.8-5.5-5.8s-5.8,2.4-5.8,5.5c0,0.1,0,0.3,0,0.4c0,6.5,0,13,0,19.4c0.1,1-0.4,1.9-1.3,2.4c-5.9,3.9-7.5,11.8-3.7,17.7
	c3,4.6,8.6,6.7,13.9,5.3c4.9-1.2,8.6-5.2,9.3-10.2c0.9-5.4-1.2-9.7-5.7-12.8c-0.8-0.5-1.3-1.3-1.2-2.2
	C68.7,25.1,68.7,21.8,68.7,18.6z"/>
<path class="st0" d="M36.7,15.9l3.1,3l-2.2,2c-1.1-1.1-2.4-2.2-3.5-3.5c-0.9-1.3-2.5-1.9-4-1.6c-0.4,0-0.9,0-1.3,0
	c0,1.2,0,2.3,0,3.4c0.1,0.3,0.2,0.5,0.5,0.7c1.6,1.6,3.2,3.2,4.8,4.8L32,26.5l-2.9-3.1l-0.3,0.1v4.8H26v-4.8l-0.2-0.1l-3,3.2
	l-2.1-2.2c1.3-1.3,2.5-2.7,3.9-3.9c1-0.8,1.5-2,1.3-3.2c0-0.6,0-1.2,0-1.8c-1.2,0-2.2,0-3.3,0c-0.3,0.1-0.6,0.2-0.8,0.5
	c-1.6,1.6-3.2,3.2-4.8,4.8L15,18.9l3.2-3l-0.1-0.2h-4.8v-2.8h5l-3.4-3.1l2.2-2.2c1.6,1.6,3.1,3.1,4.6,4.7c0.4,0.4,0.9,0.7,1.5,0.6
	c0.9-0.1,1.8,0,2.8,0c0-1.2,0-2.4,0-3.5c0-0.2-0.3-0.4-0.5-0.6L20.8,4l2.1-2.2L26,5.2V0.1h2.9v5L32,1.8l2.2,2.3
	c-0.5,0.4-1,0.7-1.4,1.1c-0.7,0.6-1.3,1.2-1.9,1.9c-2.3,2.3-2.3,2.3-2,5.8c1.1,0,2.3,0,3.4,0c0.2,0,0.5-0.3,0.7-0.5l4.6-4.6
	c0.1,0,0.1-0.1,0.2-0.1l1.9,2.1l-3,2.8l0.2,0.2h4.8v2.8h-4.8L36.7,15.9z"/>
<path class="st0" d="M23.9,44.3l3.2,3l-2.2,2c-1.1-1.1-2.5-2.3-3.6-3.6c-0.9-1.3-2.5-1.9-4.1-1.7c-0.5,0-0.9,0-1.4,0
	c0,1.2,0,2.3,0,3.5c0.1,0.3,0.2,0.5,0.4,0.7c1.6,1.6,3.2,3.2,4.9,4.9l-2.1,2l-3-3.1l-0.3,0.1v4.9H13v-4.9l-0.2-0.1l-3,3.3l-2.1-2.2
	c1.3-1.3,2.6-2.7,4-4c1-0.8,1.5-2,1.3-3.3c0-0.6,0-1.2,0-1.8c-1.2,0-2.3,0-3.4,0c-0.3,0.1-0.6,0.2-0.8,0.5c-1.6,1.6-3.2,3.3-4.9,4.9
	l-2.1-2.1l3.2-3l-0.1-0.2H0v-2.9h5.1l-3.5-3.1l2.2-2.3c1.6,1.6,3.2,3.2,4.8,4.8c0.4,0.4,0.9,0.7,1.5,0.6c0.9,0,1.8,0,2.9,0
	c0-1.2,0-2.4,0-3.6c0-0.2-0.3-0.4-0.5-0.6c-1.6-1.6-3.2-3.2-4.8-4.8l2.1-2.2l3.2,3.4v-5.2h2.9v5.2l3.2-3.5l2.3,2.3
	c-0.5,0.4-1,0.7-1.4,1.2c-0.7,0.6-1.3,1.3-1.9,1.9c-2.4,2.3-2.4,2.3-2.1,5.9c1.1,0,2.3,0,3.5,0c0.2,0,0.5-0.3,0.7-0.5l4.7-4.7
	c0.1,0,0.1-0.1,0.2-0.1l2,2.2l-3.1,2.9l0.2,0.2H29v2.9h-5L23.9,44.3z"/>
<path class="st0" d="M61.6,5.8h2.8v26.5c0,1.4-0.3,1.8-1.8,1.9c-3.7,0.2-6.6,3.3-6.8,7H53c0-2.5,0.9-4.9,2.6-6.7
	c1.3-1.5,3.1-2.5,5-2.9c0.8-0.2,0.9-0.5,0.9-1.2c0-7.8,0-15.7,0-23.5L61.6,5.8z"/>
<path class="st0" d="M70.1,41.3h2.7c0.6,3.8-3.2,9.9-9.8,9.9v-2.8C66.9,48.3,70,45.2,70.1,41.3z"/>
</svg>
