<?xml version="1.0" encoding="utf-8"?>
<!-- Generator: Adobe Illustrator 27.9.0, SVG Export Plug-In . SVG Version: 6.00 Build 0)  -->
<svg version="1.1" id="Layer_1" xmlns="http://www.w3.org/2000/svg" xmlns:xlink="http://www.w3.org/1999/xlink" x="0px" y="0px"
	 viewBox="0 0 78.4 76.1" style="enable-background:new 0 0 78.4 76.1;" xml:space="preserve">
<style type="text/css">
	.st0{fill:#EFEFEF;}
</style>
<path class="st0" d="M20.9,55.3l1.7,1.7l-1.2,1.1c-0.6-0.6-1.3-1.3-1.9-2c-0.5-0.7-1.4-1.1-2.2-0.9c-0.2,0-0.5,0-0.8,0
	c0,0.7,0,1.3,0,1.9c0,0.2,0.1,0.3,0.2,0.4c0.9,0.9,1.8,1.8,2.7,2.7l-1.1,1.1l-1.6-1.7l-0.1,0.1v2.7H15v-2.7l-0.1,0l-1.6,1.8
	l-1.2-1.2c0.7-0.7,1.4-1.5,2.2-2.2c0.6-0.4,0.8-1.1,0.7-1.8c0-0.3,0-0.7,0-1c-0.6,0-1.2,0-1.9,0c-0.2,0-0.3,0.1-0.4,0.3
	c-0.9,0.9-1.8,1.8-2.7,2.7L8.9,57l1.8-1.6l-0.1-0.1H7.9v-1.6h2.8l-1.9-1.7l1.2-1.2c0.9,0.9,1.7,1.7,2.6,2.6c0.2,0.2,0.5,0.4,0.8,0.3
	c0.5,0,1,0,1.6,0c0-0.7,0-1.3,0-2c0-0.1-0.1-0.2-0.2-0.3l-2.6-2.6l1.2-1.2l1.8,1.9v-2.8h1.6v2.8l1.8-1.9l1.2,1.3
	c-0.3,0.2-0.5,0.4-0.8,0.6s-0.7,0.7-1.1,1c-1.3,1.3-1.3,1.3-1.1,3.2c0.6,0,1.3,0,1.9,0c0.1,0,0.3-0.2,0.4-0.3l2.6-2.5l0.1-0.1l1,1.2
	l-1.7,1.6l0.1,0.1h2.7v1.6H21L20.9,55.3z"/>
<path class="st0" d="M46.2,55.3L48,57l-1.2,1.1c-0.6-0.6-1.3-1.3-2-2c-0.5-0.7-1.4-1.1-2.2-0.9c-0.2,0-0.5,0-0.8,0
	c0,0.7,0,1.3,0,1.9c0,0.2,0.1,0.3,0.2,0.4c0.9,0.9,1.8,1.8,2.7,2.7l-1.2,1.1L42,59.5l-0.1,0.1v2.7h-1.6v-2.7l-0.1,0l-1.6,1.8
	l-1.2-1.2c0.7-0.7,1.4-1.5,2.2-2.2c0.6-0.4,0.8-1.1,0.7-1.8c0-0.3,0-0.7,0-1c-0.7,0-1.3,0-1.9,0c-0.2,0-0.3,0.1-0.4,0.3
	c-0.9,0.9-1.8,1.8-2.7,2.7L34.1,57l1.8-1.6l-0.1-0.1h-2.7v-1.6H36l-1.9-1.7l1.2-1.2c0.9,0.9,1.7,1.7,2.6,2.6
	c0.2,0.2,0.5,0.4,0.8,0.3c0.5,0,1,0,1.5,0c0-0.7,0-1.3,0-2c0-0.1-0.2-0.2-0.3-0.3l-2.6-2.6l1.2-1.2l1.7,1.9v-2.8h1.6v2.8l1.8-1.9
	l1.2,1.3c-0.3,0.2-0.5,0.4-0.8,0.6s-0.7,0.7-1,1c-1.3,1.3-1.3,1.3-1.1,3.2c0.6,0,1.3,0,1.9,0c0.1,0,0.3-0.2,0.4-0.3l2.6-2.5l0.1-0.1
	l1,1.2l-1.7,1.6l0.1,0.1h2.7v1.6h-2.7L46.2,55.3z"/>
<path class="st0" d="M73.5,55.3l1.8,1.7L74,58.1c-0.6-0.6-1.3-1.3-1.9-2c-0.5-0.7-1.4-1.1-2.2-0.9c-0.2,0-0.5,0-0.8,0
	c0,0.7,0,1.3,0,1.9c0,0.2,0.1,0.3,0.2,0.4c0.9,0.9,1.8,1.8,2.7,2.7l-1.1,1.1l-1.6-1.7l-0.1,0.1v2.7h-1.6v-2.7l-0.1,0l-1.6,1.8
	l-1.2-1.2c0.7-0.7,1.4-1.5,2.2-2.2c0.6-0.4,0.8-1.1,0.7-1.8c0-0.3,0-0.7,0-1c-0.7,0-1.2,0-1.9,0c-0.2,0-0.3,0.1-0.4,0.3
	c-0.9,0.9-1.8,1.8-2.7,2.7L61.4,57l1.8-1.6l-0.1-0.1h-2.7v-1.6h2.8l-1.9-1.7l1.2-1.2c0.9,0.9,1.7,1.7,2.6,2.6
	c0.2,0.2,0.5,0.4,0.8,0.3c0.5,0,1,0,1.6,0c0-0.7,0-1.3,0-2c0-0.1-0.2-0.2-0.2-0.3l-2.7-2.6l1.2-1.2l1.8,1.9v-2.8h1.6v2.8l1.8-1.9
	l1.2,1.3c-0.3,0.2-0.5,0.4-0.8,0.6s-0.7,0.7-1.1,1c-1.3,1.3-1.3,1.3-1.2,3.2c0.6,0,1.3,0,1.9,0c0.1,0,0.3-0.2,0.4-0.3l2.6-2.6
	l0.1-0.1l1,1.2l-1.7,1.6l0.1,0.1h2.7v1.6h-2.6L73.5,55.3z"/>
<path class="st0" d="M34.1,70.6l1.4,1.3l-1,0.9c-0.5-0.5-1.1-1-1.5-1.6c-0.4-0.6-1.1-0.8-1.8-0.7c-0.2,0-0.4,0-0.6,0
	c0,0.5,0,1,0,1.5c0,0.1,0.1,0.2,0.2,0.3l2.2,2.1l-0.9,0.9l-1.3-1.3h-0.1V76h-1.3v-2h-0.1L28,75.3l-0.9-1c0.6-0.6,1.1-1.2,1.7-1.7
	c0.4-0.3,0.7-0.9,0.6-1.4c0-0.3,0-0.5,0-0.8c-0.5,0-1,0-1.5,0c-0.1,0-0.3,0.1-0.4,0.2l-2.1,2.1l-0.9-0.9l1.4-1.3l0-0.1h-2.1v-1.2H26
	l-1.5-1.4l1-1c0.7,0.7,1.4,1.4,2.1,2c0.2,0.2,0.4,0.3,0.6,0.3c0.4,0,0.8,0,1.2,0c0-0.5,0-1,0-1.6c0-0.1-0.1-0.2-0.2-0.3l-2.1-2.1
	l0.9-1l1.4,1.5v-2.1h1.3v2.2l1.3-1.5l1,1c-0.2,0.2-0.4,0.3-0.6,0.5s-0.6,0.6-0.8,0.8c-1,1-1,1-0.9,2.5c0.5,0,1,0,1.5,0
	c0.1,0,0.2-0.1,0.3-0.2l2-2h0.1l0.8,0.9l-1.3,1.2l0.1,0.1h2.1v1.2h-2.1L34.1,70.6z"/>
<path class="st0" d="M54.1,70.6l1.4,1.3l-1,0.9c-0.5-0.5-1.1-1-1.5-1.6c-0.4-0.6-1.1-0.8-1.8-0.7c-0.2,0-0.4,0-0.6,0
	c0,0.5,0,1,0,1.5c0,0.1,0.1,0.2,0.2,0.3l2.2,2.1l-0.9,0.9l-1.3-1.3h-0.1V76h-1.3v-2h-0.1L48,75.3l-0.9-1c0.6-0.6,1.1-1.2,1.7-1.7
	c0.4-0.3,0.7-0.9,0.6-1.4c0-0.3,0-0.5,0-0.8c-0.5,0-1,0-1.5,0c-0.1,0-0.3,0.1-0.3,0.2c-0.7,0.7-1.4,1.4-2.1,2.1l-0.9-0.9l1.4-1.3
	v-0.1h-2.2v-1.3H46l-1.5-1.4l1-1c0.7,0.7,1.4,1.4,2,2c0.2,0.2,0.4,0.3,0.7,0.3c0.4,0,0.8,0,1.2,0c0-0.5,0-1,0-1.6
	c0-0.1-0.1-0.2-0.2-0.3l-2.1-2.1l0.9-1l1.4,1.5v-2.1h1.3v2.2l1.4-1.5l1,1c-0.2,0.2-0.4,0.3-0.6,0.5s-0.6,0.6-0.8,0.8
	c-1,1-1,1-0.9,2.5c0.5,0,1,0,1.5,0c0.1,0,0.2-0.1,0.3-0.2l2-2h0.1l0.8,0.9l-1.3,1.2l0.1,0.1h2.1v1.2h-2.1L54.1,70.6z"/>
<path class="st0" d="M0,31.1C0.3,28.5,1.4,26,3,24c1.9-2.3,4.6-3.9,7.6-4.3c0.6-0.1,0.9-0.2,1.1-0.9c1.2-4.9,3.9-9.3,7.7-12.6
	l3.3-2.5c3.4-2.1,7.3-3.3,11.3-3.7C43.2-0.5,50.7,3,56.3,10.5c0.5,0.7,1.2,1,2,1c7.5,0.4,13.8,5.6,15.5,12.9c0.1,0.6,0.5,1.2,1,1.6
	c4,3.6,4.8,9.7,1.6,13.6c-1.5,1.8-3.6,3-5.9,3.3c-1,0.2-1.4-0.1-1.2-1.1c0-0.2,0-0.5,0-0.7c-0.1-1.2,0.2-2,1.6-2
	c0.8-0.1,1.5-0.5,2.1-1.1c2.4-2.2,2.5-5.9,0.3-8.3c-0.1-0.1-0.3-0.3-0.4-0.4c-1.5-1.4-2.5-3.2-2.9-5.2c-1.1-4.1-4.4-7.3-8.5-8.4l0,0
	c-0.1-0.2-0.3-0.3-0.5-0.2c-4.8-1.6-11.1,0.5-13.8,4.6c2.7,1.1,4.8,3.4,5.6,6.2c0.7,2.5,0.7,2.5-1.9,2.5c-0.2,0-0.3,0-0.5,0
	c-0.7,0.1-0.9-0.2-1-0.9c-0.4-2.7-2.7-4.7-5.4-4.8c-2.5-0.1-4.8,1.5-5.7,3.9c-0.2,0.6,0.1,1.5-0.5,1.8c-0.7,0.1-1.3,0.2-2,0.1h-0.1
	c-1.2,0.3-1.2-0.4-1.1-1.3c0.6-3.9,3.5-7,7.3-7.8c0.5-0.1,1.1-0.1,1.4-0.6c1.8-2.8,4.4-5.1,7.4-6.4c0.5-0.2,1-0.4,1.6-0.5
	c0.6-0.1,0.6-0.4,0.2-0.8c-2.3-2.9-5.5-5.2-9-6.4l0,0c-0.1-0.2-0.3-0.2-0.5-0.2c-3.4-1.3-7.1-1.6-10.7-1c-9,1.5-16.1,8.6-17.6,17.7
	c-0.2,1.2-0.5,1.7-1.9,1.6c-3.3-0.3-6.5,1.5-8,4.5c-1.7,2.7-1.6,6.2,0.2,8.9c1.1,2.2,3,2.8,5.2,2.8h46.5c1.8,0,1.8,0,1.9,1.7
	c-0.1,1.9-0.1,1.9-2,1.9c-15.2,0-30.5-0.2-45.7,0.1C3.1,43.1,0.2,37.3,0,32.2C0,31.8,0,31.5,0,31.1z"/>
<path class="st0" d="M62.1,41.1c0.1-1.7,0.1-1.7,1.9-1.7c0.2,0,0.3,0,0.5,0c1-0.2,1.4,0.2,1.3,1.3c0,0.2,0,0.3,0,0.5
	C65.7,43,65.7,43,64.1,43C62.2,43,62.2,43,62.1,41.1z"/>
</svg>
