<?xml version="1.0" encoding="utf-8"?>
<!-- Generator: Adobe Illustrator 27.9.0, SVG Export Plug-In . SVG Version: 6.00 Build 0)  -->
<svg version="1.1" id="Layer_1" xmlns="http://www.w3.org/2000/svg" xmlns:xlink="http://www.w3.org/1999/xlink" x="0px" y="0px"
	 viewBox="0 0 104.4 95.4" style="enable-background:new 0 0 104.4 95.4;" xml:space="preserve">
<style type="text/css">
	.st0{fill:#EFEFEF;}
</style>
<path class="st0" d="M47,74.7l1.7,1.7l-1.2,1.1c-0.6-0.6-1.3-1.2-2-2c-0.5-0.7-1.4-1.1-2.2-0.9c-0.2,0-0.5,0-0.7,0
	c0,0.7,0,1.3,0,1.9c0,0.1,0.1,0.3,0.2,0.4l2.7,2.7l-1.2,1.1l-1.6-1.7l-0.1,0.1v2.7H41v-2.6l-0.1-0.1l-1.7,1.8l-1.2-1.2
	c0.7-0.7,1.4-1.5,2.2-2.2c0.6-0.4,0.8-1.1,0.7-1.8c0-0.3,0-0.7,0-1c-0.7,0-1.2,0-1.8,0c-0.2,0-0.3,0.1-0.5,0.3L36,77.4l-1.2-1.2
	l1.8-1.6l-0.1-0.1h-2.6v-1.6h2.8l-1.9-1.7L36,70c0.9,0.9,1.8,1.7,2.6,2.6c0.2,0.2,0.5,0.4,0.8,0.3c0.5,0,1,0,1.6,0c0-0.7,0-1.3,0-2
	c0-0.1-0.2-0.2-0.3-0.3L38.1,68l1.2-1.2l1.7,1.8v-2.8h1.6v2.8l1.8-1.9l1.3,1.2c-0.2,0.2-0.5,0.4-0.8,0.6s-0.7,0.7-1,1
	c-1.3,1.4-1.3,1.4-1.2,3.3c0.6,0,1.3,0,1.9,0c0.1,0,0.3-0.2,0.4-0.3l2.6-2.6l0.1-0.1l1,1.2l-1.7,1.6l0.1,0.1h2.7v1.6H47V74.7z"/>
<path class="st0" d="M72.2,74.7l1.8,1.7l-1.2,1.1c-0.6-0.6-1.3-1.2-1.9-2c-0.5-0.7-1.4-1.1-2.2-0.9c-0.2,0-0.5,0-0.8,0
	c0,0.7,0,1.3,0,1.9c0,0.2,0.1,0.3,0.2,0.4l2.7,2.7l-1.2,1.1L68,78.8l-0.1,0.1v2.7h-1.6v-2.7l-0.1-0.1l-1.6,1.8l-1.2-1.2
	c0.7-0.7,1.4-1.5,2.2-2.2c0.6-0.4,0.8-1.1,0.7-1.8c0-0.3,0-0.7,0-1c-0.7,0-1.2,0-1.9,0c-0.2,0-0.3,0.1-0.4,0.3
	c-0.9,0.9-1.8,1.8-2.7,2.7l-1.2-1.2l1.8-1.6l-0.1-0.1h-2.7v-1.6H62l-1.9-1.7l1.2-1.2c0.9,0.9,1.7,1.7,2.6,2.6
	c0.2,0.2,0.5,0.4,0.8,0.3c0.5,0,1,0,1.6,0c0-0.7,0-1.3,0-2c0-0.1-0.2-0.2-0.3-0.3c-0.9-0.9-1.8-1.8-2.6-2.6l1.2-1.2l1.8,1.9v-2.8
	h1.6v2.8l1.8-1.9l1.2,1.2c-0.3,0.2-0.5,0.4-0.8,0.6s-0.7,0.7-1.1,1c-1.3,1.4-1.3,1.4-1.1,3.3c0.6,0,1.3,0,1.9,0
	c0.1,0,0.3-0.2,0.4-0.3c0.9-0.8,1.7-1.7,2.6-2.6l0.1-0.1l1,1.2l-1.7,1.6l0.1,0.1H75v1.6h-2.7L72.2,74.7z"/>
<path class="st0" d="M99.5,74.7l1.7,1.7l-1.2,1.1c-0.6-0.6-1.3-1.2-1.9-2c-0.5-0.7-1.4-1.1-2.2-0.9c-0.2,0-0.5,0-0.8,0
	c0,0.7,0,1.3,0,1.9c0,0.1,0.1,0.3,0.2,0.4c0.9,0.9,1.8,1.8,2.7,2.7l-1.2,1.1l-1.6-1.7l-0.1,0.1v2.7h-1.6v-2.6l-0.1-0.1l-1.7,1.8
	l-1.2-1.2c0.7-0.7,1.4-1.5,2.2-2.2c0.6-0.4,0.8-1.1,0.7-1.8c0-0.3,0-0.7,0-1c-0.7,0-1.2,0-1.9,0c-0.2,0-0.3,0.1-0.4,0.3
	c-0.9,0.9-1.8,1.8-2.7,2.7l-1.2-1.2l1.8-1.6l-0.1-0.1h-2.7v-1.6h2.8l-1.9-1.7l1.2-1.2c0.9,0.9,1.7,1.7,2.6,2.6
	c0.2,0.2,0.5,0.4,0.8,0.3c0.5,0,1,0,1.6,0c0-0.7,0-1.3,0-2c0-0.1-0.2-0.2-0.3-0.3L90.7,68l1.2-1.2l1.8,1.9v-2.8h1.6v2.8l1.8-1.9
	l1.2,1.2c-0.2,0.2-0.5,0.4-0.8,0.6s-0.7,0.7-1,1C95,71,95,71,95.2,72.9c0.6,0,1.3,0,1.9,0c0.1,0,0.3-0.2,0.4-0.3l2.5-2.6l0.1-0.1
	l1,1.2l-1.7,1.6l0.1,0.1h2.7v1.6h-2.6L99.5,74.7z"/>
<path class="st0" d="M60.2,89.9l1.4,1.3l-1,0.9c-0.5-0.5-1.1-1-1.5-1.6c-0.4-0.6-1.1-0.8-1.8-0.7c-0.2,0-0.4,0-0.6,0
	c0,0.5,0,1,0,1.5c0,0.1,0.1,0.2,0.2,0.3l2.2,2.1l-0.9,0.8l-1.3-1.3l-0.1,0.1v2.1h-1.3v-2.1h-0.1L54,94.7l-0.9-1
	c0.6-0.6,1.1-1.2,1.7-1.7c0.4-0.3,0.7-0.9,0.6-1.4c0-0.3,0-0.5,0-0.8c-0.5,0-1,0-1.5,0c-0.1,0-0.3,0.1-0.3,0.2l-2.1,2.1l-0.9-0.9
	l1.4-1.3v-0.1h-2.2v-1.3H52l-1.5-1.4l1-1c0.7,0.7,1.4,1.4,2,2.1c0.2,0.2,0.4,0.3,0.7,0.3c0.4,0,0.8,0,1.2,0c0-0.5,0-1,0-1.6
	c0-0.1-0.1-0.2-0.2-0.3l-2.1-2.1l0.9-1l1.4,1.5v-2.2h1.3v2.2l1.4-1.5l1,1c-0.2,0.2-0.4,0.3-0.6,0.5s-0.6,0.6-0.8,0.8
	c-1,1-1,1-0.9,2.5c0.5,0,1,0,1.5,0c0.1,0,0.2-0.1,0.3-0.2l2-2l0.1-0.1l0.8,1l-1.3,1.2l0.1,0.1h2.1v1.2h-2.1L60.2,89.9z"/>
<path class="st0" d="M80.2,89.9l1.4,1.3L80.6,92c-0.5-0.5-1.1-1-1.5-1.6c-0.4-0.6-1.1-0.8-1.8-0.7c-0.2,0-0.4,0-0.6,0
	c0,0.5,0,1,0,1.5c0,0.1,0.1,0.2,0.2,0.3l2.1,2.1l-0.9,0.8l-1.3-1.3l-0.1,0.1v2.1h-1.3v-2.1h-0.1l-1.3,1.4l-0.9-1
	c0.6-0.6,1.1-1.2,1.7-1.7c0.4-0.3,0.7-0.9,0.6-1.4c0-0.3,0-0.5,0-0.8c-0.5,0-1,0-1.5,0c-0.1,0-0.3,0.1-0.3,0.2l-2.1,2.1l-0.9-0.9
	l1.4-1.3v-0.1h-2.2v-1.2h2.2l-1.5-1.4l1-1l2.1,2.1c0.2,0.2,0.4,0.3,0.6,0.3c0.4,0,0.8,0,1.2,0c0-0.5,0-1,0-1.6
	c0-0.1-0.1-0.2-0.2-0.3l-2.1-2.1l0.9-1l1.4,1.5v-2.2h1.3v2.2l1.4-1.5l1,1c-0.2,0.2-0.4,0.3-0.6,0.5s-0.6,0.6-0.8,0.8
	c-1,1-1,1-0.9,2.5c0.5,0,1,0,1.5,0c0.1,0,0.2-0.1,0.3-0.2l2-2l0.1-0.1l0.8,1l-1.3,1.2l0.1,0.1h2.1v1.2h-2.1L80.2,89.9z"/>
<path class="st0" d="M26,50.4c0.3-2.6,1.4-5.1,3-7.1c1.9-2.3,4.6-3.8,7.6-4.3c0.6-0.1,0.9-0.2,1.1-0.8c1.2-4.9,3.9-9.3,7.7-12.6
	l3.3-2.5c3.4-2.1,7.3-3.3,11.3-3.6c9.3-0.6,16.8,3,22.4,10.4c0.4,0.7,1.2,1.1,2,1.1c7.5,0.3,13.8,5.6,15.5,12.9
	c0.1,0.6,0.5,1.2,1,1.7c4,3.6,4.8,9.7,1.6,13.6c-1.5,1.8-3.6,3-5.9,3.3c-1,0.2-1.4-0.1-1.2-1.1c0-0.2,0-0.5,0-0.7
	c-0.1-1.2,0.2-2,1.6-2c0.8-0.1,1.5-0.5,2.1-1.1c2.4-2.2,2.5-5.9,0.3-8.3c-0.1-0.1-0.3-0.3-0.4-0.4c-1.4-1.4-2.4-3.2-2.9-5.2
	c-1.1-4.1-4.4-7.3-8.5-8.4l0,0c-0.1-0.2-0.3-0.3-0.5-0.2c-4.8-1.6-11.1,0.5-13.8,4.6c2.7,1.1,4.8,3.4,5.6,6.2
	c0.7,2.5,0.7,2.5-1.9,2.5c-0.2,0-0.3,0-0.5,0c-0.7,0.1-0.9-0.2-1-0.9c-0.4-2.6-2.6-4.7-5.3-4.8c-2.5-0.1-4.8,1.5-5.7,3.8
	c-0.2,0.6,0.1,1.5-0.5,1.8c-0.7,0.1-1.3,0.2-2,0.1h-0.1c-1.2,0.3-1.2-0.4-1.1-1.3c0.6-3.9,3.5-7,7.4-7.8c0.5-0.1,1.1-0.1,1.4-0.7
	c1.8-2.8,4.4-5,7.4-6.4c0.5-0.2,1-0.4,1.6-0.5c0.6-0.1,0.6-0.4,0.2-0.8c-2.3-3-5.5-5.2-9-6.4l0,0c-0.1-0.2-0.3-0.2-0.5-0.2
	c-3.4-1.3-7.1-1.6-10.7-1c-9,1.5-16.1,8.6-17.6,17.7c-0.2,1.2-0.5,1.7-1.9,1.6c-3.3-0.3-6.5,1.5-8,4.5c-1.7,2.7-1.6,6.2,0.1,8.9
	c1.1,2.2,3,2.8,5.2,2.8h46.5c1.8,0,1.8,0,1.9,1.8c-0.1,1.9-0.1,1.9-2,1.9c-15.2,0-30.5-0.2-45.7,0.1c-7.8,0.1-10.7-5.8-10.9-10.8
	C26,51.1,26,50.8,26,50.4z"/>
<path class="st0" d="M88.2,60.4c0.1-1.8,0.1-1.8,1.9-1.8c0.2,0,0.3,0,0.5,0c1-0.2,1.5,0.2,1.3,1.3c0,0.2,0,0.3,0,0.5
	c-0.1,1.9-0.1,1.9-1.7,1.9C88.2,62.3,88.2,62.3,88.2,60.4z"/>
<path class="st0" d="M49.1,18.7c-0.9-1.7-2.1-3.2-3.4-4.6c-0.4-0.4-0.5-0.7-0.1-1.2c0.8-0.9,1.6-1.9,2.4-2.9c1.7-2,1.7-2-0.4-3.7
	c-0.6-0.5-0.8-0.4-1.2,0.2c-1.1,1.4-2.3,2.7-3.4,4.1c-0.5,0.6-0.8,0.6-1.4,0.2c-2.9-2-6.3-3.2-9.8-3.5c-0.6-0.1-0.8-0.3-0.8-0.9
	c0-1.3,0-2.6,0-3.9c0-2.5,0-2.5-2.6-2.5c-0.7,0-0.9,0.2-0.9,0.9c0,1.8,0,3.7,0,5.5c0,0.5,0,0.9-0.7,0.9c-3.6,0.3-7.1,1.6-10.1,3.7
	c-0.5,0.3-0.8,0.2-1.1-0.2c-0.8-1-1.6-1.9-2.3-2.8c-0.6-0.7-1.1-1.8-1.7-1.8s-1.4,1-2.1,1.5C9,8,9.1,8.2,9.4,8.6
	c1.2,1.4,2.4,2.9,3.6,4.3c0.4,0.4,0.5,0.7,0,1.2c-2.5,2.5-4.3,5.7-5.3,9.1c-0.2,0.6-0.5,0.8-1.1,0.7c-1.3-0.3-2.5-0.5-3.8-0.7
	c-2.4-0.4-2.3-0.3-2.8,2.2c-0.2,0.9,0.2,1,0.8,1c1.8,0.3,3.6,0.6,5.4,0.9c0.6,0.1,0.7,0.3,0.7,0.9c-0.3,3.6,0.4,7.2,1.9,10.5
	c0.2,0.5,0.2,0.8-0.3,1c-1.1,0.6-2.2,1.3-3.3,1.9C2.8,43,2.8,43,4.2,45.3c0.3,0.6,0.6,0.6,1.1,0.3c1.5-0.9,3.1-1.8,4.6-2.7
	c0.6-0.4,0.9-0.4,1.4,0.3c1.7,2.4,3.9,4.3,6.4,5.8c0.7,0.5,1.9,0.6,2.1,1.3s-0.9,2.8-1,3c-0.2,0.5,3,1.6,3.1,1.5
	c0.4-0.2,0.7-1.8,1.1-2.7c0-0.1,0-0.1,0.1-0.2c0.1-0.3,0.2-0.5,0.5-0.4c0.6,0.1,0.6-0.2,0.7-0.6s0.2-0.8,0.4-1.2c0-0.2,0-0.4,0-0.6
	c0.4-0.8-0.1-1-0.7-1.2c-6.4-1.8-11.4-6.9-13-13.3c-2.2-8,1.4-17.1,8.2-20.9c2.3-1.7,5.1-2.7,8-2.9c8.5-0.7,15,2.8,19.2,10.3
	c0.3,0.5,0.5,0.7,1,0.4c0.3-0.2,0.7-0.3,1-0.4C50,20.2,50,20.2,49.1,18.7z"/>
</svg>
