<?xml version="1.0" encoding="utf-8"?>
<!-- Generator: Adobe Illustrator 27.9.0, SVG Export Plug-In . SVG Version: 6.00 Build 0)  -->
<svg version="1.1" id="Layer_1" xmlns="http://www.w3.org/2000/svg" xmlns:xlink="http://www.w3.org/1999/xlink" x="0px" y="0px"
	 viewBox="0 0 96.7 94.6" style="enable-background:new 0 0 96.7 94.6;" xml:space="preserve">
<style type="text/css">
	.st0{fill:#EFEFEF;}
</style>
<path class="st0" d="M11,40.6c-2.3-2.1-4.2-4.7-5.3-7.6c-0.3-0.7-0.5-1.5-0.8-2.3c-2.5-8.8,1.4-18.8,8.7-23.2c2.8-1.8,5.9-3,9.2-3.3
	c5.2-0.7,10.4,0.6,14.7,3.6L37.9,8c0,0,2.9,2.1,3.4,2.6v0.1l2.4-2.9c-0.6-0.6-1.1-1.2-1.7-1.7c-0.2-0.2-0.5-0.4-0.7-0.6
	s-0.5-0.4-0.7-0.6L40,4.6c-5.1-3.6-11.4-5.2-17.6-4.4c-4,0.4-7.8,1.8-11.1,4C2.6,9.6-2.1,21.4,0.9,32c0.7,2.7,1.9,5.3,3.5,7.7l0,0
	c0.2,0.3,0.4,0.7,0.7,1C6,41.9,7,43,8.2,44l0,0c0.3,0.2,0.6,0.5,0.9,0.7l1.2,0.9c0.5,0.3,0.9,0.7,1.4,1l2.8-3.3L26.1,29l-3.4-2.6
	L11,40.6z"/>
<polygon class="st0" points="35.6,10.7 32.5,14.5 35.8,17.2 39,13.4 "/>
<path class="st0" d="M39.3,73.8l1.7,1.6l-1.2,1.1c-0.6-0.6-1.3-1.3-1.9-2c-0.5-0.7-1.4-1.1-2.2-0.9c-0.2,0-0.5,0-0.8,0
	c0,0.7,0,1.3,0,1.9c0,0.2,0.1,0.3,0.2,0.4c0.9,0.9,1.8,1.8,2.7,2.7l-1.2,1.1L35.1,78L35,78.1v2.7h-1.6v-2.7h-0.1l-1.6,1.7l-1.2-1.2
	c0.7-0.7,1.4-1.5,2.2-2.2c0.6-0.4,0.8-1.1,0.7-1.8c0-0.3,0-0.7,0-1c-0.7,0-1.2,0-1.9,0c-0.2,0-0.3,0.1-0.4,0.3
	c-0.9,0.9-1.8,1.8-2.7,2.7l-1.2-1.2l1.8-1.6v-0.1h-2.7v-1.6H29l-1.9-1.7l1.2-1.2c0.9,0.9,1.7,1.7,2.6,2.6c0.2,0.2,0.5,0.4,0.8,0.3
	c0.5,0,1,0,1.6,0c0-0.7,0-1.3,0-2c0-0.1-0.2-0.2-0.3-0.3l-2.6-2.6l1.1-1.1l1.8,1.9V65h1.6v2.8l1.8-1.9l1.2,1.3
	c-0.3,0.2-0.5,0.4-0.8,0.6c-0.4,0.3-0.7,0.7-1.1,1.1c-1.3,1.3-1.3,1.3-1.1,3.2c0.6,0,1.3,0,1.9,0c0.1,0,0.3-0.2,0.4-0.3l2.5-2.6
	l0.1-0.1l1,1.2L39.3,72l0.1,0.1H42v1.6h-2.6L39.3,73.8z"/>
<path class="st0" d="M64.6,73.8l1.8,1.6l-1.2,1.1c-0.6-0.6-1.3-1.3-2-2c-0.5-0.7-1.3-1-2.1-0.9c-0.2,0-0.5,0-0.7,0
	c0,0.7,0,1.3,0,1.9c0,0.2,0.1,0.3,0.2,0.4c0.9,0.9,1.8,1.8,2.7,2.7L62,79.7L60.4,78l-0.1,0.1v2.7h-1.6v-2.7h-0.1l-1.6,1.8l-1.2-1.2
	c0.7-0.7,1.4-1.5,2.2-2.2c0.6-0.4,0.8-1.1,0.7-1.8c0-0.3,0-0.7,0-1c-0.7,0-1.3,0-1.9,0c-0.2,0-0.3,0.1-0.4,0.3l-2.7,2.7l-1.2-1.2
	l1.8-1.6l-0.1-0.1h-2.7v-1.6h2.8l-1.9-1.7l1.2-1.2c0.9,0.9,1.7,1.7,2.6,2.6c0.2,0.2,0.5,0.4,0.8,0.3c0.5,0,1,0,1.6,0
	c0-0.7,0-1.3,0-2c0-0.1-0.2-0.2-0.3-0.3l-2.6-2.6l1.1-1.1l1.8,1.9V65h1.6v2.8l1.8-1.9l1.2,1.3c-0.3,0.2-0.5,0.4-0.8,0.6
	s-0.7,0.7-1,1.1c-1.3,1.3-1.3,1.3-1.1,3.2c0.6,0,1.3,0,1.9,0c0.1,0,0.3-0.2,0.4-0.3l2.6-2.6l0.1-0.1l1,1.2L64.6,72l0.1,0.1h2.7v1.6
	h-2.7L64.6,73.8z"/>
<path class="st0" d="M91.8,73.8l1.8,1.6l-1.2,1.1c-0.6-0.6-1.3-1.3-1.9-2c-0.5-0.7-1.4-1.1-2.2-0.9c-0.2,0-0.5,0-0.8,0
	c0,0.7,0,1.3,0,1.9c0,0.2,0.1,0.3,0.2,0.4c0.9,0.9,1.8,1.8,2.7,2.7l-1.2,1.1L87.6,78l-0.1,0.1v2.7h-1.6v-2.7h-0.1l-1.6,1.8L83,78.6
	c0.7-0.7,1.4-1.5,2.2-2.2c0.6-0.4,0.8-1.1,0.7-1.8c0-0.3,0-0.7,0-1c-0.7,0-1.2,0-1.9,0c-0.2,0-0.3,0.1-0.4,0.3
	c-0.9,0.9-1.8,1.8-2.7,2.7l-1.2-1.2l1.8-1.6l-0.1-0.1h-2.7v-1.6h2.8l-1.9-1.7l1.2-1.2c0.9,0.9,1.7,1.7,2.6,2.6
	c0.2,0.2,0.5,0.4,0.8,0.3c0.5,0,1,0,1.6,0c0-0.7,0-1.3,0-2c0-0.1-0.2-0.2-0.3-0.3L83,67.2l1.1-1.2l1.8,1.9V65h1.6v2.8l1.8-1.9
	l1.2,1.3c-0.3,0.2-0.5,0.4-0.8,0.6c-0.4,0.3-0.7,0.7-1.1,1.1c-1.3,1.3-1.3,1.3-1.1,3.2c0.6,0,1.3,0,1.9,0c0.1,0,0.3-0.2,0.4-0.3
	l2.6-2.6l0.1-0.1l1,1.2L91.8,72l0.1,0.1h2.7v1.6h-2.7L91.8,73.8z"/>
<path class="st0" d="M52.5,89.1l1.4,1.3l-1,0.9c-0.5-0.5-1.1-1-1.5-1.6c-0.4-0.6-1.1-0.8-1.8-0.7c-0.2,0-0.4,0-0.6,0
	c0,0.5,0,1,0,1.5c0,0.1,0.1,0.2,0.2,0.3l2.1,2.1l-0.9,0.8l-1.3-1.3L49,92.4v2.1h-1.2v-2.1h-0.1l-1.3,1.4l-0.9-1
	c0.6-0.6,1.1-1.2,1.7-1.7c0.4-0.3,0.7-0.9,0.6-1.4c0-0.3,0-0.5,0-0.8c-0.5,0-1,0-1.5,0C46.2,89,46,89,46,89.2l-2.1,2.1l-0.9-0.9
	l1.4-1.3h-0.1h-2.1v-1.3h2.2l-1.5-1.4l1-1c0.7,0.7,1.4,1.4,2.1,2.1c0.2,0.2,0.4,0.3,0.6,0.3c0.4,0,0.8,0,1.2,0c0-0.5,0-1,0-1.6
	c0-0.1-0.1-0.2-0.2-0.3l-2.1-2.1l0.9-1l1.4,1.5v-2.2H49v2.2l1.4-1.5l1,1c-0.2,0.2-0.4,0.3-0.6,0.5s-0.6,0.6-0.8,0.8
	c-1,1-1,1-0.9,2.5c0.5,0,1,0,1.5,0c0.1,0,0.2-0.1,0.3-0.2l2-2h0.1l0.8,0.9l-1.3,1.2l0.1,0.1h2.1V89L52.5,89.1L52.5,89.1z"/>
<path class="st0" d="M72.5,89.1l1.4,1.3l-0.9,0.9c-0.5-0.5-1.1-1-1.6-1.6c-0.4-0.6-1.1-0.8-1.8-0.7c-0.2,0-0.4,0-0.6,0
	c0,0.5,0,1,0,1.5c0,0.1,0.1,0.2,0.2,0.3l2.1,2.1l-0.9,0.8l-1.3-1.3l-0.1,0.1v2.1h-1.2v-2.1h-0.1l-1.3,1.4l-0.9-1
	c0.6-0.6,1.1-1.2,1.7-1.7c0.4-0.3,0.7-0.9,0.6-1.4c0-0.3,0-0.5,0-0.8c-0.5,0-1,0-1.5,0c-0.1,0-0.3,0.1-0.3,0.2
	c-0.7,0.7-1.4,1.4-2.1,2.1L63,90.3l1.3-1.3v-0.1h-2.2v-1.2h2.2l-1.5-1.4l1-1c0.7,0.7,1.4,1.4,2,2.1c0.2,0.2,0.4,0.3,0.7,0.3
	c0.4,0,0.8,0,1.2,0c0-0.5,0-1,0-1.6c0-0.1-0.1-0.2-0.2-0.3l-2.1-2.1l0.9-1l1.4,1.5v-2.2H69v2.2l1.4-1.5l1,1
	c-0.2,0.2-0.4,0.3-0.6,0.5c-0.3,0.3-0.6,0.6-0.8,0.8c-1,1-1,1-0.9,2.5c0.5,0,1,0,1.5,0c0.1,0,0.2-0.1,0.3-0.2l2-2H73l0.8,0.9
	l-1.3,1.2l0.1,0.1h2.1V89L72.5,89.1L72.5,89.1z"/>
<path class="st0" d="M18.4,49.6c0.3-2.6,1.4-5.1,3-7.1c1.9-2.3,4.6-3.8,7.6-4.3c0.6-0.1,0.9-0.2,1.1-0.8c1.2-4.9,3.9-9.3,7.7-12.6
	l3.3-2.5c3.4-2.1,7.3-3.3,11.3-3.6c9.4-0.6,16.8,3,22.4,10.4c0.4,0.7,1.2,1.1,2,1c7.4,0.4,13.7,5.6,15.4,12.9c0.1,0.7,0.5,1.2,1,1.7
	c4,3.6,4.8,9.7,1.6,13.6c-1.5,1.8-3.6,3-5.9,3.3c-1,0.2-1.4-0.1-1.2-1.1c0-0.2,0-0.5,0-0.7c-0.1-1.2,0.2-2,1.6-2
	c0.8-0.1,1.5-0.5,2.1-1.1c2.4-2.2,2.5-5.9,0.3-8.3c-0.1-0.1-0.3-0.3-0.4-0.4c-1.5-1.4-2.5-3.2-2.9-5.2c-1.1-4.1-4.4-7.3-8.5-8.4l0,0
	c-0.1-0.2-0.3-0.3-0.5-0.2c-4.8-1.6-11.1,0.5-13.8,4.6c2.7,1.1,4.7,3.4,5.5,6.2c0.7,2.5,0.7,2.5-1.9,2.5c-0.2,0-0.3,0-0.5,0
	c-0.7,0.1-0.9-0.2-1-0.9c-0.4-2.7-2.6-4.7-5.3-4.8c-2.5-0.1-4.8,1.5-5.7,3.8c-0.2,0.6,0.1,1.5-0.5,1.8c-0.7,0.1-1.3,0.2-2,0.1H54
	c-1.2,0.3-1.2-0.4-1.1-1.3c0.6-3.9,3.5-7,7.3-7.8c0.5-0.1,1.1-0.1,1.4-0.7c1.8-2.8,4.4-5.1,7.4-6.4c0.5-0.2,1-0.4,1.6-0.5
	c0.6-0.1,0.6-0.4,0.2-0.8c-2.3-2.9-5.5-5.2-9-6.4l0,0c-0.1-0.2-0.3-0.2-0.5-0.2c-3.4-1.3-7.1-1.6-10.7-1c-9,1.5-16.1,8.6-17.6,17.6
	c-0.2,1.2-0.5,1.7-1.9,1.6c-3.3-0.3-6.5,1.5-8,4.5c-1.7,2.7-1.6,6.2,0.1,8.9c1.1,2.2,3,2.8,5.2,2.8h46.5c1.8,0,1.8,0,1.9,1.7
	c-0.1,1.9-0.1,1.9-2,1.9c-15.2,0-30.5-0.2-45.7,0.1c-7.8,0.1-10.7-5.8-10.9-10.9C18.4,50.3,18.4,49.9,18.4,49.6z"/>
<path class="st0" d="M80.5,59.6c0.1-1.8,0.1-1.8,1.9-1.8c0.2,0,0.3,0,0.5,0c1-0.2,1.5,0.2,1.3,1.3c0,0.2,0,0.3,0,0.5
	c-0.1,1.9-0.1,1.9-1.7,1.9C80.6,61.4,80.6,61.4,80.5,59.6z"/>
</svg>
