<?xml version="1.0" encoding="utf-8"?>
<!-- Generator: Adobe Illustrator 27.9.0, SVG Export Plug-In . SVG Version: 6.00 Build 0)  -->
<svg version="1.1" id="Layer_1" xmlns="http://www.w3.org/2000/svg" xmlns:xlink="http://www.w3.org/1999/xlink" x="0px" y="0px"
	 viewBox="0 0 97.8 89.8" style="enable-background:new 0 0 97.8 89.8;" xml:space="preserve">
<style type="text/css">
	.st0{fill:#EFEFEF;}
</style>
<path class="st0" d="M53.9,89.3c2-2.1,8-8.6,8-8.6l0,0c1.4-1.5,2.7-3,4.1-4.4c0.5-0.4,0.7-1,0.4-1.6c-0.3-0.5-0.9-0.8-1.5-0.7
	c-0.4,0.1-0.9,0.1-1.4,0.1l0.3-0.7l2.6-5.1c0.6-1.1,0.1-2-1.2-2c-3,0-6.1,0-9.1,0c-0.6,0-1.2,0.3-1.5,0.9c-1.7,3.5-3.4,7-5.1,10.5
	c-0.4,0.6-0.3,1.3,0.2,1.8c0.3,0.2,0.6,0.3,1,0.2c1.2,0,2.4,0,3.7,0c-0.2,0.6-0.4,1.2-0.6,1.8l-1.1,3.4c-0.4,1.2-0.8,2.4-1.1,3.6
	c-0.1,0.4,0.1,0.9,0.3,1.2c0.4,0.2,0.8,0.3,1.2,0.3C53.4,89.8,53.7,89.5,53.9,89.3z M52.6,77.2c0.1-0.2,0.1-0.3,0.2-0.5
	c1.2-2.5,2.4-5,3.6-7.5c0.1-0.2,0.3-0.4,0.5-0.4c2.1,0,4.2,0,6.4,0l-2.3,4.3l-0.8,1.6c-0.4,0.5-0.3,1.3,0.2,1.8
	c0.3,0.2,0.7,0.3,1,0.2h0.7L56,83.4l-0.1-0.1c0.1-0.3,0.2-0.7,0.3-1c0.4-1.1,0.8-2.3,1.1-3.4c0.3-0.6,0-1.3-0.6-1.6
	c-0.2-0.1-0.5-0.1-0.7-0.1C54.9,77.2,53.8,77.2,52.6,77.2z"/>
<path class="st0" d="M82.3,67.5c0.7,0.7,0.8,1.9,0.1,2.6l0,0c-1.6,1.7-3.3,3.3-4.9,4.9c-0.6,0.7-1.7,0.8-2.4,0.3
	c0,0-0.1-0.1-0.1-0.1c-0.7-0.7-0.7-1.7,0-2.4c0,0,0.1-0.1,0.1-0.1c1.7-1.7,3.3-3.4,5-5c0.5-0.6,1.3-0.8,2-0.4L82.3,67.5z"/>
<path class="st0" d="M33.8,74c0.2-0.4,0.4-0.8,0.6-1.1c1.7-1.7,3.4-3.4,5.1-5.1c0.6-0.7,1.7-0.8,2.4-0.1c0.7,0.6,0.8,1.7,0.1,2.4
	c0,0.1-0.1,0.1-0.2,0.2c-1.7,1.7-3.3,3.4-5,5c-0.5,0.6-1.3,0.7-2,0.4C34.2,75.3,33.8,74.7,33.8,74z"/>
<path class="st0" d="M82.3,78.6c0.7,0.7,0.8,1.9,0.1,2.6l0,0c-1.6,1.7-3.3,3.3-4.9,4.9c-0.6,0.7-1.7,0.8-2.4,0.3
	c0,0-0.1-0.1-0.1-0.1c-0.7-0.7-0.7-1.7,0-2.4c0,0,0.1-0.1,0.1-0.1c1.7-1.7,3.3-3.4,5-5c0.5-0.6,1.3-0.8,2-0.4L82.3,78.6z"/>
<path class="st0" d="M33.8,85c0.2-0.4,0.4-0.8,0.6-1.1c1.7-1.7,3.4-3.4,5.1-5.1c0.6-0.7,1.7-0.8,2.4-0.1c0.7,0.6,0.8,1.7,0.1,2.4
	c0,0.1-0.1,0.1-0.2,0.2c-1.7,1.7-3.3,3.4-5,5c-0.5,0.6-1.3,0.7-2,0.4C34.2,86.3,33.8,85.7,33.8,85z"/>
<path class="st0" d="M17.5,50.5c0.3-2.7,1.4-5.2,3.1-7.3c2-2.4,4.7-3.9,7.8-4.4c0.6-0.1,1-0.2,1.1-0.9c1.3-5,4-9.5,7.8-12.9l3.4-2.6
	c3.5-2.1,7.5-3.4,11.6-3.7c9.6-0.6,17.2,3,23,10.7c0.4,0.7,1.2,1.1,2.1,1.1c7.6,0.4,14.1,5.8,15.8,13.2c0.1,0.7,0.5,1.3,1,1.7
	c4.2,3.6,4.9,9.9,1.7,13.9c-1.5,1.8-3.6,3-6,3.3c-1,0.2-1.5-0.1-1.3-1.2c0-0.2,0-0.5,0-0.7c-0.1-1.2,0.2-2,1.7-2
	c0.8-0.1,1.6-0.5,2.1-1.1c2.4-2.3,2.6-6.1,0.3-8.5c-0.1-0.1-0.3-0.3-0.4-0.4c-1.5-1.4-2.5-3.3-3-5.3c-1.2-4.2-4.5-7.5-8.7-8.6l0,0
	c-0.1-0.2-0.3-0.2-0.5-0.2c-5-1.7-11.5,0.5-14.3,4.7c2.8,1.1,4.9,3.5,5.7,6.4c0.7,2.5,0.7,2.5-1.9,2.5c-0.2,0-0.3,0-0.5,0
	c-0.8,0.1-0.9-0.2-1-0.9c-0.4-2.7-2.6-4.8-5.4-4.9c-2.6-0.1-5,1.5-5.8,4c-0.2,0.6,0.1,1.5-0.6,1.8c-0.7,0.2-1.4,0.2-2,0.1
	c0,0-0.1,0-0.1,0c-1.2,0.3-1.3-0.4-1.2-1.4c0.6-4,3.6-7.2,7.5-8c0.5-0.1,1.1-0.1,1.5-0.7c1.8-2.9,4.5-5.2,7.6-6.6
	c0.5-0.2,1.1-0.4,1.6-0.5c0.7-0.1,0.6-0.4,0.3-0.8c-2.4-3-5.6-5.3-9.2-6.6l0,0c-0.1-0.2-0.3-0.3-0.5-0.2c-3.5-1.3-7.3-1.7-11-1
	c-9.3,1.6-16.5,8.8-18,18.1c-0.2,1.2-0.5,1.7-1.9,1.7c-3.4-0.3-6.7,1.5-8.3,4.6c-1.7,2.8-1.7,6.3,0.1,9.1c1.1,2.2,3,2.9,5.3,2.9
	h47.8c1.8,0,1.8,0,2,1.8c-0.1,1.9-0.1,1.9-2.1,1.9c-15.6,0-31.3-0.2-46.9,0.1c-8,0.1-11-5.9-11.1-11.1
	C17.5,51.3,17.5,50.9,17.5,50.5z"/>
<path class="st0" d="M81.1,60.8c0.1-1.8,0.1-1.8,1.9-1.8c0.2,0,0.3,0,0.5,0c1.1-0.2,1.5,0.2,1.3,1.3c0,0.2,0,0.3,0,0.5
	c-0.1,1.9-0.1,1.9-1.8,1.9C81.2,62.7,81.2,62.7,81.1,60.8z"/>
<path class="st0" d="M11,40.6c-2.3-2.1-4.2-4.7-5.3-7.6c-0.3-0.7-0.5-1.5-0.8-2.3c-2.5-8.8,1.4-18.8,8.7-23.2c2.8-1.8,5.9-3,9.2-3.3
	c5.2-0.7,10.4,0.6,14.7,3.6L37.9,8c0,0,2.9,2.1,3.4,2.6v0.1l2.4-2.9c-0.6-0.6-1.1-1.2-1.7-1.7c-0.2-0.2-0.5-0.4-0.7-0.6
	s-0.5-0.4-0.7-0.6L40,4.6c-5.1-3.6-11.4-5.2-17.6-4.4c-4,0.4-7.8,1.8-11.1,4C2.6,9.6-2.1,21.4,0.9,32c0.7,2.7,1.9,5.3,3.5,7.7l0,0
	c0.2,0.3,0.4,0.7,0.7,1C6,41.9,7,43,8.2,44l0,0c0.3,0.2,0.6,0.5,0.9,0.7l1.2,0.9c0.5,0.3,0.9,0.7,1.4,1l2.8-3.3L26.1,29l-3.4-2.6
	L11,40.6z"/>
<polygon class="st0" points="35.6,10.7 32.5,14.5 35.8,17.2 39,13.4 "/>
</svg>
