<?xml version="1.0" encoding="utf-8"?>
<!-- Generator: Adobe Illustrator 27.9.0, SVG Export Plug-In . SVG Version: 6.00 Build 0)  -->
<svg version="1.1" id="Layer_1" xmlns="http://www.w3.org/2000/svg" xmlns:xlink="http://www.w3.org/1999/xlink" x="0px" y="0px"
	 viewBox="0 0 75.3 67.4" style="enable-background:new 0 0 75.3 67.4;" xml:space="preserve">
<style type="text/css">
	.st0{fill:#EFEFEF;}
</style>
<path class="st0" d="M34,66.9l8-8.6l0,0c1.4-1.5,2.7-3,4.1-4.4c0.5-0.4,0.7-1,0.4-1.6c-0.3-0.6-0.9-0.8-1.5-0.7l-1.4,0.1
	c0.1-0.3,0.2-0.5,0.3-0.7l2.7-5.1c0.6-1.2,0.1-2-1.2-2c-3,0-6.1,0-9.1,0c-0.6,0-1.2,0.3-1.5,0.9c-1.7,3.5-3.4,7-5.1,10.5
	c-0.4,0.6-0.3,1.3,0.3,1.8c0.3,0.2,0.6,0.3,1,0.2h3.7c-0.2,0.6-0.4,1.2-0.6,1.8l-1.1,3.4c-0.4,1.2-0.8,2.4-1.1,3.6
	c-0.1,0.4,0.1,0.9,0.3,1.2c0.4,0.2,0.8,0.3,1.2,0.3C33.5,67.4,33.8,67.1,34,66.9z M32.7,54.8c0.1-0.2,0.1-0.3,0.2-0.5
	c1.2-2.5,2.4-5,3.6-7.5c0.1-0.2,0.3-0.4,0.5-0.4c2.1,0,4.2,0,6.4,0l-2.3,4.3l-0.8,1.6c-0.4,0.5-0.3,1.3,0.2,1.8
	c0.3,0.2,0.7,0.3,1,0.2c0.2,0,0.4,0,0.7,0L36.1,61L36,60.9c0.1-0.3,0.2-0.7,0.3-1c0.4-1.1,0.8-2.3,1.1-3.4c0.3-0.6,0-1.4-0.6-1.7
	c-0.2-0.1-0.5-0.1-0.7-0.1L32.7,54.8z"/>
<path class="st0" d="M61,46.5c0.7,0.7,0.8,1.8,0.1,2.5l0,0c-1.5,1.6-3.1,3.2-4.7,4.7c-0.6,0.7-1.6,0.8-2.3,0.3
	C54,54,54,54,53.9,53.9c-0.6-0.6-0.7-1.6,0-2.3c0,0,0.1-0.1,0.1-0.1c1.6-1.6,3.2-3.2,4.8-4.8c0.5-0.6,1.3-0.7,1.9-0.4
	C60.8,46.4,60.9,46.5,61,46.5z"/>
<path class="st0" d="M14.3,52.7c0.2-0.4,0.4-0.7,0.6-1.1c1.6-1.7,3.2-3.3,4.9-4.9c0.6-0.7,1.6-0.8,2.3-0.3c0.7,0.6,0.8,1.6,0.3,2.3
	c-0.1,0.1-0.2,0.2-0.3,0.3c-1.6,1.6-3.2,3.2-4.9,4.8c-0.5,0.6-1.3,0.7-1.9,0.4C14.7,53.9,14.3,53.4,14.3,52.7z"/>
<path class="st0" d="M61,57.2c0.7,0.7,0.8,1.8,0.1,2.5l0,0c-1.5,1.6-3.1,3.2-4.7,4.7c-0.6,0.7-1.6,0.8-2.3,0.3
	c-0.1,0-0.1-0.1-0.1-0.1c-0.6-0.6-0.7-1.6,0-2.3c0,0,0.1-0.1,0.1-0.1c1.6-1.6,3.2-3.2,4.8-4.9c0.5-0.6,1.3-0.7,1.9-0.4
	C60.8,57,60.9,57.1,61,57.2z"/>
<path class="st0" d="M14.3,63.3c0.2-0.4,0.4-0.7,0.6-1.1c1.6-1.7,3.2-3.3,4.9-4.9c0.6-0.7,1.6-0.8,2.3-0.2c0.7,0.6,0.8,1.6,0.2,2.3
	c-0.1,0.1-0.1,0.1-0.2,0.2c-1.6,1.6-3.2,3.2-4.9,4.9c-0.5,0.6-1.3,0.7-1.9,0.4C14.7,64.6,14.3,64,14.3,63.3z"/>
<path class="st0" d="M0,29.9C0.3,27.4,1.3,25,2.9,23c1.8-2.2,4.4-3.7,7.3-4.1c0.6-0.1,0.9-0.2,1-0.8c1.2-4.7,3.8-8.9,7.4-12.1
	l3.2-2.4c3.3-2,7-3.2,10.8-3.5c9-0.5,16.1,2.9,21.5,10c0.4,0.7,1.2,1,2,1c7.2,0.3,13.2,5.4,14.8,12.4c0.1,0.6,0.5,1.2,1,1.6
	c3.9,3.4,4.6,9.3,1.6,13.1c-1.4,1.7-3.4,2.8-5.7,3.1c-0.9,0.2-1.4-0.1-1.2-1.1c0-0.2,0-0.5,0-0.7c-0.1-1.2,0.2-1.9,1.6-1.9
	c0.8-0.1,1.5-0.4,2-1c2.3-2.1,2.4-5.7,0.3-7.9c-0.1-0.1-0.3-0.3-0.4-0.4c-1.4-1.4-2.4-3.1-2.8-5c-1.1-3.9-4.2-7-8.1-8l0,0
	c-0.1-0.2-0.3-0.3-0.5-0.2c-4.6-1.5-10.7,0.5-13.3,4.4c2.6,1.1,4.6,3.3,5.3,6c0.7,2.4,0.7,2.4-1.8,2.4c-0.2,0-0.3,0-0.5,0
	c-0.7,0.1-0.9-0.2-1-0.9c-0.4-2.5-2.5-4.4-5-4.6c-2.4-0.1-4.7,1.3-5.6,3.6c-0.2,0.6,0.1,1.4-0.5,1.7c-0.6,0.1-1.3,0.2-1.9,0.1
	c0,0-0.1,0-0.1,0c-1.2,0.3-1.2-0.4-1.1-1.3c0.6-3.7,3.4-6.7,7.1-7.4c0.5-0.1,1-0.1,1.4-0.6c1.7-2.7,4.2-4.9,7.2-6.2
	c0.5-0.2,1-0.4,1.5-0.5c0.6-0.1,0.6-0.3,0.2-0.7c-2.2-2.8-5.2-5-8.6-6.1l0,0c-0.1-0.2-0.3-0.2-0.5-0.2c-3.3-1.3-6.8-1.6-10.3-1
	c-8.7,1.4-15.5,8.3-16.9,17c-0.2,1.1-0.4,1.6-1.8,1.5c-3.2-0.2-6.2,1.5-7.7,4.3c-1.6,2.6-1.6,5.9,0.1,8.5c1,2.1,2.8,2.7,5,2.7h44.8
	c1.7,0,1.7,0,1.8,1.7c-0.1,1.8-0.1,1.8-1.9,1.8c-14.7,0-29.3-0.2-43.9,0.1C3,41.5,0.2,35.8,0,30.9C0,30.6,0,30.2,0,29.9z"/>
<path class="st0" d="M59.7,39.5c0.1-1.7,0.1-1.7,1.8-1.7c0.2,0,0.3,0,0.5,0c1-0.2,1.4,0.2,1.2,1.2c0,0.1,0,0.3,0,0.5
	c-0.1,1.8-0.1,1.8-1.7,1.8C59.8,41.3,59.8,41.3,59.7,39.5z"/>
</svg>
