<?xml version="1.0" encoding="utf-8"?>
<!-- Generator: Adobe Illustrator 27.9.0, SVG Export Plug-In . SVG Version: 6.00 Build 0)  -->
<svg version="1.1" id="Layer_1" xmlns="http://www.w3.org/2000/svg" xmlns:xlink="http://www.w3.org/1999/xlink" x="0px" y="0px"
	 viewBox="0 0 80.4 70" style="enable-background:new 0 0 80.4 70;" xml:space="preserve">
<style type="text/css">
	.st0{fill:#EFEFEF;}
</style>
<path class="st0" d="M36.4,69.5c2-2.1,8-8.6,8-8.6l0,0l4.1-4.4c0.5-0.4,0.7-1,0.4-1.6c-0.3-0.5-0.9-0.8-1.5-0.7
	c-0.4,0-0.9,0.1-1.4,0.1l0.3-0.7l2.7-5.1c0.6-1.1,0.1-2-1.2-2c-3,0-6.1,0-9.1,0c-0.6,0-1.2,0.3-1.5,0.9c-1.7,3.5-3.4,7-5.1,10.5
	c-0.4,0.6-0.3,1.3,0.2,1.8c0.3,0.2,0.6,0.3,1,0.2H37c-0.2,0.6-0.4,1.2-0.6,1.8L35.3,65c-0.4,1.2-0.8,2.4-1.1,3.6
	c-0.1,0.4,0.1,0.9,0.3,1.2c0.4,0.2,0.8,0.3,1.2,0.3C36,70,36.2,69.7,36.4,69.5z M35.1,57.4c0.1-0.2,0.1-0.3,0.2-0.5
	c1.2-2.5,2.4-5,3.6-7.5c0.1-0.2,0.4-0.4,0.5-0.4c2.1,0,4.2,0,6.4,0c-0.8,1.5-1.5,2.9-2.3,4.3c-0.3,0.5-0.6,1-0.8,1.6
	c-0.4,0.5-0.3,1.3,0.2,1.8c0.3,0.2,0.7,0.3,1,0.2h0.7l-6.2,6.7l-0.1-0.1c0.1-0.3,0.2-0.7,0.3-1c0.4-1.1,0.8-2.3,1.1-3.4
	c0.3-0.6,0-1.4-0.6-1.7c-0.2-0.1-0.5-0.1-0.7-0.1L35.1,57.4z"/>
<path class="st0" d="M0,31.9c0.3-2.7,1.4-5.2,3.1-7.3c2-2.4,4.7-3.9,7.8-4.4c0.6-0.1,0.9-0.3,1.1-0.9c1.3-5,4-9.5,7.9-12.9l3.4-2.6
	c3.5-2.1,7.5-3.4,11.6-3.7c9.6-0.6,17.2,3.1,23,10.7c0.5,0.7,1.2,1.1,2.1,1.1c7.6,0.4,14.1,5.7,15.8,13.2c0.1,0.7,0.5,1.3,1,1.7
	c4.1,3.7,4.9,9.9,1.7,13.9c-1.5,1.8-3.6,3-6,3.3c-1,0.2-1.5-0.1-1.3-1.1c0-0.2,0-0.5,0-0.7c-0.1-1.2,0.2-2,1.7-2
	c0.8-0.1,1.6-0.5,2.1-1.1c2.4-2.3,2.6-6.1,0.3-8.5c-0.1-0.1-0.3-0.3-0.4-0.4c-1.5-1.4-2.5-3.3-3-5.3c-1.2-4.2-4.5-7.5-8.7-8.6l0,0
	C62.9,16,62.7,16,62.5,16c-4.9-1.6-11.4,0.5-14.2,4.7c2.8,1.1,4.9,3.5,5.7,6.4c0.7,2.5,0.7,2.5-1.9,2.5c-0.2,0-0.3,0-0.5,0
	c-0.8,0.1-0.9-0.2-1-0.9c-0.4-2.7-2.7-4.8-5.4-4.9c-2.6-0.1-4.9,1.5-5.8,4c-0.2,0.6,0.1,1.5-0.6,1.8c-0.7,0.1-1.3,0.2-2,0.1h-0.1
	c-1.2,0.3-1.3-0.4-1.2-1.4c0.6-4,3.6-7.2,7.5-8c0.5-0.1,1.1-0.1,1.5-0.7c1.8-2.9,4.5-5.2,7.6-6.6c0.5-0.2,1.1-0.4,1.6-0.5
	c0.7-0.1,0.6-0.4,0.3-0.8c-2.4-3-5.6-5.3-9.2-6.6l0,0c-0.1-0.2-0.3-0.2-0.5-0.2c-3.5-1.3-7.3-1.7-11-1c-9.3,1.6-16.5,8.8-18,18.1
	c-0.2,1.2-0.5,1.7-1.9,1.6c-3.5-0.3-6.8,1.5-8.3,4.7c-1.7,2.8-1.7,6.3,0.1,9.1c1.1,2.2,3,2.9,5.3,2.9h47.7c1.8,0,1.8,0,2,1.8
	c-0.1,1.9-0.1,1.9-2.1,1.9c-15.6,0-31.2-0.2-46.9,0.1C3.2,44.2,0.2,38.2,0,33C0,32.6,0,32.3,0,31.9z"/>
<path class="st0" d="M63.7,42.2c0.1-1.8,0.1-1.8,1.9-1.8c0.2,0,0.3,0,0.5,0c1.1-0.2,1.5,0.2,1.3,1.3c0,0.2,0,0.3,0,0.5
	C67.3,44,67.3,44,65.7,44C63.8,44,63.8,44,63.7,42.2z"/>
</svg>
